<svg width="189" height="176" viewBox="0 0 189 176" fill="none" xmlns="http://www.w3.org/2000/svg">
<path d="M167.395 125.979L183.093 113.876L165.346 122.952L175.584 105.031L161.935 121.091L165.643 102.851L167.395 103.256L165.83 101.914L166.622 97.9419L180.137 99.5268L162.616 93.7061L180.589 90.4633H160.326L176.024 78.3598L158.278 87.4395L166.297 73.3984L174.447 75.336L168.25 69.9976L168.536 69.499L168.171 69.9287L167.379 69.268L184.67 71.2947C184.733 71.3067 184.799 71.2929 184.853 71.2563C184.907 71.2197 184.945 71.163 184.959 71.0983C184.972 71.0336 184.961 70.9659 184.927 70.9095C184.893 70.8532 184.839 70.8125 184.777 70.7961L169.653 65.7699L184.804 63.0257C184.867 63.0143 184.922 62.9795 184.961 62.9281C184.999 62.8767 185.018 62.8124 185.012 62.7479C185.007 62.6834 184.978 62.6234 184.931 62.5795C184.885 62.5357 184.824 62.5112 184.761 62.5109H167.395L181.139 51.9153C181.192 51.8836 181.23 51.8318 181.245 51.7714C181.26 51.7109 181.251 51.6468 181.22 51.593C181.189 51.5393 181.139 51.5003 181.08 51.4847C181.021 51.4691 180.958 51.4782 180.906 51.5099L165.346 59.4708L174.38 43.6625C174.415 43.6136 174.429 43.5526 174.42 43.4929C174.41 43.4332 174.378 43.3798 174.33 43.3443C174.283 43.3088 174.223 43.2942 174.165 43.3037C174.106 43.3132 174.054 43.346 174.019 43.395L161.935 57.6184L166.337 35.9488C166.343 35.9067 166.334 35.8637 166.312 35.8275C166.29 35.7914 166.256 35.7645 166.217 35.7518C166.177 35.7391 166.134 35.7413 166.096 35.7581C166.057 35.7749 166.026 35.8052 166.008 35.8434L157.838 55.989L157.129 36.9379C157.129 36.8572 157.097 36.7799 157.042 36.7229C156.986 36.6659 156.91 36.6338 156.832 36.6338C156.753 36.6338 156.677 36.6659 156.621 36.7229C156.566 36.7799 156.534 36.8572 156.534 36.9379L155.108 56.4429L146.815 37.6391C146.79 37.581 146.744 37.535 146.686 37.5104C146.629 37.4858 146.564 37.4845 146.506 37.5066C146.448 37.5288 146.4 37.5727 146.372 37.6297C146.344 37.6866 146.338 37.7523 146.356 37.8134L152.148 58.5791L137.667 42.4181L149.739 61.376L149.704 61.8462L132.405 49.2197L146.891 63.2649L132.29 56.3497C132.278 56.3417 132.264 56.3363 132.249 56.3338C132.235 56.3314 132.22 56.3318 132.205 56.3352C132.191 56.3386 132.178 56.3448 132.166 56.3536C132.154 56.3623 132.143 56.3734 132.136 56.3862C132.128 56.399 132.123 56.4132 132.12 56.428C132.118 56.4429 132.118 56.4581 132.121 56.4728C132.125 56.4875 132.131 56.5013 132.139 56.5136C132.148 56.5259 132.159 56.5363 132.171 56.5443L141.149 62.742L141.76 66.4144L133.574 65.324C133.541 65.3175 133.507 65.3248 133.479 65.3442C133.451 65.3636 133.432 65.3935 133.425 65.4274C133.419 65.4612 133.426 65.4963 133.445 65.5248C133.464 65.5533 133.493 65.5729 133.526 65.5794L142.029 68.0398L142.425 70.33L134.969 71.5825L132.591 68.1046L143.289 90.2161L126.874 79.2435L142.152 93.7061L125.214 86.6126L140.559 95.1045L124.667 93.698L140.119 97.4312L129.386 99.9362L140.575 99.0607L133.067 104.18L146.189 100.569L150.421 115.87C150.421 117.086 150.457 118.574 150.476 120.167L137.655 105.858L150.334 125.74L132.409 112.66L149.193 129.247L130.174 118.622L147.588 130.641L131.838 128.545L147.132 132.972L134.885 135.063L147.588 134.601L140.08 139.721L150.587 136.826C150.563 138.853 150.536 141.224 150.508 143.567C150.476 146.461 150.445 149.242 150.425 151.111H145.9C145.549 151.112 145.204 151.206 144.899 151.384C144.593 151.561 144.338 151.816 144.157 152.124L139.283 160.425C138.902 161.081 138.652 161.808 138.548 162.564C138.445 163.32 138.49 164.09 138.681 164.827L140.848 173.076C141.012 173.701 141.372 174.254 141.873 174.649C142.375 175.044 142.989 175.259 143.622 175.261H165.81C166.442 175.257 167.055 175.041 167.556 174.647C168.057 174.252 168.418 173.7 168.583 173.076L170.747 164.827C170.939 164.09 170.984 163.32 170.881 162.564C170.777 161.808 170.527 161.081 170.144 160.425L165.275 152.124C165.094 151.815 164.838 151.559 164.532 151.382C164.226 151.204 163.88 151.111 163.528 151.111H157.981C157.981 146.79 158.028 140.977 158.056 134.897L174.416 138.792L167.363 132.741L187.174 135.067L169.669 129.247L187.645 126.004L167.395 125.979ZM166.571 97.9297L165.184 101.351L160.326 97.2001L166.571 97.9297ZM165.414 73.1674L158.08 81.7971C158.052 77.7113 158.024 73.974 158.004 71.4001L165.414 73.1674ZM150.912 105.461C150.643 104.087 150.797 101.278 150.956 99.3322L154.819 100.256C154.581 101.006 154.51 101.922 154.395 103.451C154.363 103.856 154.331 104.318 154.288 104.829C154.165 106.341 153.931 106.661 153.547 107.188C153.112 107.761 152.762 108.398 152.509 109.077C152.19 110.237 151.982 111.426 151.887 112.627L151.574 111.918C151.525 109.751 151.304 107.591 150.912 105.461ZM153.61 109.514C153.826 108.932 154.125 108.385 154.498 107.893C155.009 107.188 155.33 106.637 155.473 104.906C155.516 104.391 155.548 103.933 155.58 103.519C155.694 101.999 155.758 101.136 155.976 100.508L156.507 100.633L155.108 119.924L152.85 114.792C153.095 112.222 153.361 110.171 153.61 109.527V109.514ZM154.878 85.5465L156.859 75.8629C156.859 78.0639 156.895 80.5649 156.911 83.1591L154.878 85.5465ZM155.635 71.9554L150.785 83.9292L150.389 73.4106L155.635 71.9554ZM149.957 61.6881L150.33 62.2718L149.969 62.0083L149.957 61.6881ZM148.824 73.8484L148.055 84.3873L145.08 74.8658L148.824 73.8484ZM144.557 73.2079L143.951 71.2825L147.6 71.1488L144.557 73.2079ZM141.308 62.8352L147.588 67.1724L142.437 66.4873L141.308 62.8352ZM143.016 68.3073L147.132 69.499L143.566 70.107L143.016 68.3073ZM134.969 71.5906L142.588 71.3109L143.071 74.2253L140.103 76.252L143.273 75.3846L145.116 86.495L134.969 71.5906ZM149.751 99.5795C149.601 101.57 149.478 104.265 149.751 105.696C149.934 106.624 150.076 107.646 150.183 108.732L146.542 100.467L149.751 99.5795ZM151.609 151.103C151.609 149.25 151.661 146.461 151.693 143.571C151.72 141.095 151.752 138.577 151.776 136.49L156.883 135.083C156.855 141.091 156.828 146.838 156.808 151.103H151.609ZM158.179 101.059L164.685 102.603L158.159 118.667C158.187 112.182 158.206 106.831 158.206 104.646C158.206 103.73 158.202 102.494 158.195 101.059H158.179Z" fill="#C7C7C7"/>
<path d="M141.11 34.8017C149.535 34.8017 156.364 27.8148 156.364 19.196C156.364 10.5772 149.535 3.59033 141.11 3.59033C132.686 3.59033 125.856 10.5772 125.856 19.196C125.856 27.8148 132.686 34.8017 141.11 34.8017Z" stroke="#99A57C" stroke-miterlimit="10" stroke-linecap="round"/>
<path d="M141.11 33.2856C148.717 33.2856 154.883 26.9774 154.883 19.1959C154.883 11.4144 148.717 5.1062 141.11 5.1062C133.504 5.1062 127.338 11.4144 127.338 19.1959C127.338 26.9774 133.504 33.2856 141.11 33.2856Z" stroke="#99A57C" stroke-miterlimit="10" stroke-linecap="round"/>
<path d="M146.574 20.9309L141.11 19.196L147.58 9.60156" stroke="#99A57C" stroke-miterlimit="10" stroke-linecap="round"/>
<path d="M141.111 19.9864C141.537 19.9864 141.883 19.6325 141.883 19.1959C141.883 18.7594 141.537 18.4055 141.111 18.4055C140.684 18.4055 140.338 18.7594 140.338 19.1959C140.338 19.6325 140.684 19.9864 141.111 19.9864Z" fill="#99A57C" stroke="#99A57C" stroke-miterlimit="10"/>
<path d="M135.782 14.8791C137.324 14.8791 138.575 13.5997 138.575 12.0215C138.575 10.4432 137.324 9.16382 135.782 9.16382C134.239 9.16382 132.988 10.4432 132.988 12.0215C132.988 13.5997 134.239 14.8791 135.782 14.8791Z" stroke="#99A57C" stroke-miterlimit="10" stroke-linecap="round"/>
<path d="M136.978 16.9666C136.978 17.0876 136.943 17.206 136.877 17.3066C136.811 17.4073 136.718 17.4857 136.608 17.532C136.499 17.5784 136.379 17.5905 136.263 17.5669C136.147 17.5433 136.04 17.485 135.956 17.3994C135.873 17.3138 135.816 17.2047 135.793 17.086C135.77 16.9672 135.782 16.8442 135.827 16.7323C135.872 16.6205 135.949 16.5249 136.047 16.4576C136.146 16.3904 136.261 16.3545 136.38 16.3545C136.458 16.3545 136.536 16.3703 136.608 16.4011C136.681 16.4318 136.747 16.4769 136.803 16.5338C136.858 16.5906 136.902 16.6581 136.932 16.7323C136.962 16.8066 136.978 16.8862 136.978 16.9666Z" stroke="#99A57C" stroke-miterlimit="10" stroke-linecap="round"/>
<path d="M12.9232 18.9934H91.5358V175.062H8.22803V18.9934H10.5657" stroke="#99A57C" stroke-miterlimit="10"/>
<path d="M89.0119 22.3699H63.7651V171.682H89.0119V22.3699Z" stroke="#99A57C" stroke-miterlimit="10"/>
<path d="M60.8767 22.3699H37.0762V171.682H60.8767V22.3699Z" stroke="#99A57C" stroke-miterlimit="10"/>
<path d="M34.1919 62.9813V60.2695" stroke="#99A57C" stroke-miterlimit="10"/>
<path d="M34.1919 57.8576V22.3699H10.752V171.682H34.1919V66.2968" stroke="#99A57C" stroke-miterlimit="10"/>
<path d="M48.0317 175.095V81.3554C48.0317 80.8696 48.1253 80.3886 48.3072 79.9398C48.489 79.491 48.7555 79.0833 49.0915 78.74C49.4275 78.3967 49.8263 78.1245 50.2651 77.9389C50.704 77.7534 51.1743 77.6582 51.6492 77.6587H110.8C111.758 77.6587 112.677 78.0482 113.355 78.7414C114.033 79.4347 114.413 80.375 114.413 81.3554V174.949" stroke="#99A57C" stroke-width="4" stroke-linejoin="round"/>
<path d="M118.106 94.7314L116.362 93.5154C113.836 91.6784 111.868 89.1495 110.685 86.2192L109.215 82.7495H106.905L105.451 86.2192C104.267 89.1495 102.299 91.6784 99.7729 93.5154L98.0295 94.7314C97.5268 95.1109 97.1205 95.6082 96.8447 96.1817C96.569 96.7551 96.4318 97.3879 96.4447 98.0269H119.651C119.668 97.3914 119.537 96.7608 119.269 96.1876C119 95.6145 118.601 95.1152 118.106 94.7314ZM108.723 96.5676H98.7506C98.7506 95.4732 100.458 94.4599 101.128 93.9045L102.317 92.9033C104.119 91.3379 105.477 89.3049 106.247 87.0178L107.253 84.2087H108.838L109.845 87.0178C110.615 89.306 111.974 91.3393 113.779 92.9033L114.968 93.9045C115.645 94.4599 117.317 95.4732 117.317 96.5676H108.723Z" fill="white" stroke="#99A57C" stroke-linecap="round" stroke-linejoin="round"/>
<path d="M108.062 82.6928V80.1472C108.062 80.1472 109.484 79.0569 109.484 77.4801C109.484 75.9033 108.296 75.2953 106.996 75.7817" stroke="#99A57C" stroke-linecap="round" stroke-linejoin="round"/>
<path d="M101.433 90.8889C101.433 90.8889 104.076 94.006 107.4 94.0587C110.926 94.1154 115.071 90.9578 115.071 90.9578C116.016 91.792 117.045 92.5203 118.141 93.1305C119.988 94.16 121.204 95.6679 122.171 98.2824C123.252 101.197 125.634 109.121 125.634 109.121L118.771 109.462L119.71 125.392H96.8805L98.4257 109.178H91.7812C91.7812 109.178 93.9882 98.4688 94.9985 96.4097C96.0088 94.3505 101.433 90.8889 101.433 90.8889Z" fill="white" stroke="#99A57C" stroke-linecap="round" stroke-linejoin="round"/>
<path d="M98.4258 109.162L98.7745 100.65" stroke="#99A57C" stroke-linecap="round" stroke-linejoin="round"/>
<path d="M118.772 109.462L118.233 101.197" stroke="#99A57C" stroke-linecap="round" stroke-linejoin="round"/>
<path d="M114.552 94.7314L112.809 93.5154C110.283 91.6784 108.315 89.1495 107.131 86.2192L105.677 82.7495H103.367L101.913 86.2192C100.731 89.1502 98.7623 91.6796 96.2353 93.5154L94.4919 94.7314C93.9892 95.1109 93.5829 95.6082 93.3071 96.1817C93.0314 96.7551 92.8942 97.3879 92.9071 98.0269H116.113C116.129 97.39 115.995 96.7586 115.724 96.1853C115.452 95.612 115.051 95.1135 114.552 94.7314ZM105.17 96.5676H95.1972C95.1972 95.4732 96.9049 94.4599 97.5745 93.9045L98.7829 92.9033C100.586 91.3379 101.943 89.3049 102.713 87.0178L103.72 84.2087H105.305L106.311 87.0178C107.081 89.306 108.44 91.3393 110.245 92.9033L111.434 93.9045C112.112 94.4599 113.784 95.4732 113.784 96.5676H105.17Z" fill="white" stroke="#99A57C" stroke-linecap="round" stroke-linejoin="round"/>
<path d="M104.508 82.6928V80.1472C104.508 80.1472 105.931 79.0569 105.931 77.4801C105.931 75.9033 104.742 75.2953 103.442 75.7817" stroke="#99A57C" stroke-linecap="round" stroke-linejoin="round"/>
<path d="M97.879 90.8889C97.879 90.8889 100.522 94.006 103.846 94.0587C107.372 94.1154 111.517 90.9578 111.517 90.9578C112.462 91.792 113.491 92.5203 114.587 93.1305C116.438 94.16 117.65 95.6679 118.617 98.2824C119.698 101.197 122.084 109.121 122.084 109.121L115.217 109.462L116.156 125.392H93.3265L94.8717 109.178H88.2153C88.2153 109.178 90.4183 98.4405 91.4247 96.4137C92.431 94.387 97.879 90.8889 97.879 90.8889Z" fill="#6B6B6B" stroke="#99A57C" stroke-linecap="round" stroke-linejoin="round"/>
<path d="M94.8721 109.162L95.2207 100.65" stroke="#99A57C" stroke-linecap="round" stroke-linejoin="round"/>
<path d="M115.217 109.462L114.678 101.197" stroke="#99A57C" stroke-linecap="round" stroke-linejoin="round"/>
<path d="M94.9158 86.3896L101.101 86.6937V113.795H93.7549L94.9158 86.3896Z" fill="white" stroke="#99A57C" stroke-linecap="round" stroke-linejoin="round"/>
<path d="M108.308 94.1763L106.565 92.9602C104.038 91.1235 102.068 88.5946 100.883 85.6641L99.4329 82.1943H97.123L95.6689 85.6641C94.4851 88.5943 92.5171 91.1233 89.9911 92.9602L88.2478 94.1763C87.7451 94.5557 87.3388 95.053 87.063 95.6265C86.7872 96.1999 86.65 96.8327 86.6629 97.4717H109.869C109.885 96.8348 109.751 96.2034 109.48 95.6301C109.208 95.0568 108.806 94.5583 108.308 94.1763ZM98.9139 96.0084H88.9531C88.9531 94.914 90.6568 93.9006 91.3303 93.3413L92.519 92.3441C94.323 90.779 95.682 88.7461 96.4534 86.4585L97.4598 83.6495H99.0446L100.051 86.4585C100.827 88.7553 102.196 90.7945 104.013 92.3603L105.222 93.3575C105.895 93.9168 107.571 94.9302 107.571 96.0246L98.9139 96.0084Z" fill="white" stroke="#99A57C" stroke-linecap="round" stroke-linejoin="round"/>
<path d="M98.264 82.1376V79.592C98.264 79.592 99.6865 78.4976 99.6865 76.9208C99.6865 75.3441 98.4978 74.7401 97.1982 75.2224" stroke="#99A57C" stroke-linecap="round" stroke-linejoin="round"/>
<path d="M94.916 86.3896L97.5984 110.576L100.895 85.6641C100.895 85.6641 106.509 91.5415 108.356 92.5549C110.202 93.5682 111.882 94.9626 112.385 97.7068C112.888 100.451 115.555 127.933 115.555 127.933L109.342 128.278L109.913 143.839H84.8443L86.3539 127.625H80.478C80.478 127.625 84.1707 97.9176 85.1771 95.8544C86.1835 93.7912 94.916 86.3896 94.916 86.3896Z" fill="white" stroke="#99A57C" stroke-linecap="round" stroke-linejoin="round"/>
<path d="M94.9159 86.3896L98.2124 112.186L97.42 113.26L90.0742 90.9862C90.0742 90.9862 92.4 87.1598 94.9159 86.3896Z" fill="white" stroke="#99A57C" stroke-linecap="round" stroke-linejoin="round"/>
<path d="M100.895 85.6642L96.3896 119.713L106.608 90.7391C106.608 90.7391 100.851 85.0926 100.895 85.6642Z" fill="white" stroke="#99A57C" stroke-linecap="round" stroke-linejoin="round"/>
<path d="M85.1766 95.8342C85.1766 95.8342 80.3785 119.697 79.3285 125.335C78.2785 130.973 77.7437 140.094 77.7437 140.094L86.9239 140.361L89.5468 100.111" fill="white"/>
<path d="M85.1766 95.8342C85.1766 95.8342 80.3785 119.697 79.3285 125.335C78.2785 130.973 77.7437 140.094 77.7437 140.094L86.9239 140.361L89.5468 100.111" stroke="#99A57C" stroke-linecap="round" stroke-linejoin="round"/>
<path d="M111.775 95.8342C111.775 95.8342 116.573 119.697 117.623 125.335C118.673 130.973 119.207 140.094 119.207 140.094L110.027 140.361L107.404 100.111" fill="white"/>
<path d="M111.775 95.8342C111.775 95.8342 116.573 119.697 117.623 125.335C118.673 130.973 119.207 140.094 119.207 140.094L110.027 140.361L107.404 100.111" stroke="#99A57C" stroke-linecap="round" stroke-linejoin="round"/>
<path d="M96.3779 119.697V144.118" stroke="#99A57C" stroke-linecap="round" stroke-linejoin="round"/>
<path d="M98.5169 94.7314L96.7736 93.5154C94.2488 91.6771 92.2811 89.1486 91.0959 86.2192L89.6418 82.7495H87.3437L85.8896 86.2192C84.7044 89.1486 82.7367 91.6771 80.2119 93.5154L78.4646 94.7314C77.9619 95.1109 77.5556 95.6082 77.2798 96.1817C77.004 96.7551 76.8668 97.3879 76.8797 98.0269H100.102C100.115 97.3879 99.9775 96.7551 99.7017 96.1817C99.426 95.6082 99.0196 95.1109 98.5169 94.7314ZM89.1346 96.5676H79.1699C79.1699 95.4732 80.8775 94.4599 81.5471 93.9045L82.7358 92.9033C84.5398 91.3391 85.8977 89.3058 86.6662 87.0178L87.6726 84.2087H89.2574L90.2678 87.0178C91.0363 89.3058 92.3942 91.3391 94.1982 92.9033L95.4067 93.9045C96.0802 94.4599 97.7523 95.4732 97.7523 96.5676H89.1346Z" fill="white" stroke="#99A57C" stroke-linecap="round" stroke-linejoin="round"/>
<path d="M88.4809 82.6928V80.1472C88.4809 80.1472 89.9033 79.0569 89.9033 77.4801C89.9033 75.9033 88.7146 75.2953 87.415 75.7817" stroke="#99A57C" stroke-linecap="round" stroke-linejoin="round"/>
<path d="M85.1333 86.945L87.8196 94.8452L91.1042 86.2195C91.1042 86.2195 96.7185 92.0969 98.5649 93.1103C100.411 94.1237 102.087 95.514 102.59 98.2622C103.094 101.01 105.78 128.485 105.78 128.485L99.5713 128.829L100.13 144.37H75.0615L76.5711 128.156H70.6992C70.6992 128.156 74.3919 98.4406 75.3983 96.4138C76.4047 94.3871 85.1333 86.945 85.1333 86.945Z" fill="#99A57C" stroke="#99A57C" stroke-linecap="round" stroke-linejoin="round"/>
<path d="M82.6177 88.8337L84.1272 97.2487L87.3168 91.7563L85.304 85.9153L82.6177 88.8337Z" fill="white" stroke="#99A57C" stroke-linecap="round" stroke-linejoin="round"/>
<path d="M91.1042 86.2195L88.3228 91.9267L91.1755 97.5934L93.529 88.1489L91.1042 86.2195Z" fill="white" stroke="#99A57C" stroke-linecap="round" stroke-linejoin="round"/>
<path d="M99.5717 128.849L98.2285 102.745" stroke="#99A57C" stroke-linecap="round" stroke-linejoin="round"/>
<path d="M76.5713 128.164L78.9248 102.745" stroke="#99A57C" stroke-linecap="round" stroke-linejoin="round"/>
<path d="M89.4322 94.7314L87.6849 93.5154C85.1601 91.6771 83.1924 89.1486 82.0071 86.2192L80.553 82.7495H78.2471L76.793 86.2192C75.6078 89.1486 73.6401 91.6771 71.1152 93.5154L69.3719 94.7314C68.8687 95.1104 68.4621 95.6076 68.1862 96.1812C67.9104 96.7548 67.7735 97.3878 67.7871 98.0269H90.9893C91.0054 97.3904 90.8725 96.7591 90.6016 96.1859C90.3307 95.6126 89.9298 95.1139 89.4322 94.7314ZM80.0499 96.5676H70.0772C70.0772 95.4732 71.7809 94.4599 72.4544 93.9045L73.6629 92.9033C75.4669 91.3391 76.8248 89.3058 77.5933 87.0178L78.5997 84.2087H80.1846L81.1909 87.0178C81.9595 89.3058 83.3174 91.3391 85.1214 92.9033L86.3298 93.9045C87.0034 94.4599 88.6754 95.4732 88.6754 96.5676H80.0499Z" fill="white" stroke="#99A57C" stroke-linecap="round" stroke-linejoin="round"/>
<path d="M79.3881 82.6928V80.1472C79.3881 80.1472 80.8105 79.0569 80.8105 77.4801C80.8105 75.9033 79.6219 75.2953 78.3184 75.7817" stroke="#99A57C" stroke-linecap="round" stroke-linejoin="round"/>
<path d="M76.0361 86.945L78.7066 94.8452L81.9912 86.2195C81.9912 86.2195 87.6055 92.0969 89.4519 93.1103C91.2982 94.1237 92.9782 95.514 93.4814 98.2622C93.9846 101.01 96.6511 128.485 96.6511 128.485L90.4741 128.841L91.0367 144.382H65.9644L67.4779 128.168H61.6021C61.6021 128.168 65.2948 98.4406 66.3011 96.4138C67.3075 94.3871 76.0361 86.945 76.0361 86.945Z" fill="#6B6B6B" stroke="#99A57C" stroke-linecap="round" stroke-linejoin="round"/>
<path d="M73.52 88.8337L75.0296 97.2487L78.2191 91.7563L76.2063 85.9153L73.52 88.8337Z" fill="white" stroke="#99A57C" stroke-linecap="round" stroke-linejoin="round"/>
<path d="M82.007 86.2195L79.2256 91.9267L82.0823 97.5934L84.4318 88.1489L82.007 86.2195Z" fill="white" stroke="#99A57C" stroke-linecap="round" stroke-linejoin="round"/>
<path d="M90.474 128.849L89.1309 102.745" stroke="#99A57C" stroke-linecap="round" stroke-linejoin="round"/>
<path d="M67.478 128.164L69.8276 102.745" stroke="#99A57C" stroke-linecap="round" stroke-linejoin="round"/>
<path d="M81.0449 94.7314L79.3016 93.5154C76.7755 91.6784 74.8075 89.1495 73.6238 86.2192L72.1697 82.7495H69.8598L68.4057 86.2192C67.222 89.1495 65.254 91.6784 62.728 93.5154L60.9846 94.7314C60.4819 95.1109 60.0756 95.6082 59.7998 96.1817C59.524 96.7551 59.3868 97.3879 59.3998 98.0269H82.606C82.6216 97.39 82.4881 96.7586 82.2165 96.1853C81.9449 95.612 81.5432 95.1135 81.0449 94.7314ZM71.6626 96.5676H61.6899C61.6899 95.4732 63.3936 94.4599 64.0672 93.9045L65.2756 92.9033C67.0754 91.3369 68.4302 89.304 69.1981 87.0178L70.2045 84.2087H71.7893L72.7957 87.0178C73.5657 89.306 74.9249 91.3393 76.7301 92.9033L77.9188 93.9045C78.5963 94.4599 80.2683 95.4732 80.2683 96.5676H71.6626Z" fill="white" stroke="#99A57C" stroke-linecap="round" stroke-linejoin="round"/>
<path d="M71.0009 82.6928V80.1472C71.0009 80.1472 72.4233 79.0569 72.4233 77.4801C72.4233 75.9033 71.2346 75.2953 69.9351 75.7817" stroke="#99A57C" stroke-linecap="round" stroke-linejoin="round"/>
<path d="M64.3718 90.8889C64.3718 90.8889 67.0145 94.006 70.3387 94.0587C73.865 94.1154 78.0094 90.9578 78.0094 90.9578C78.9556 91.7922 79.9863 92.5206 81.084 93.1305C82.9304 94.16 84.1468 95.6679 85.1135 98.2824C86.1952 101.197 88.5764 109.121 88.5764 109.121L81.714 109.462L82.653 125.392H59.8193L61.3645 109.178H54.7002C54.7002 109.178 56.915 98.4405 57.9174 96.4137C58.9199 94.387 64.3718 90.8889 64.3718 90.8889Z" fill="#A1A1A1" stroke="#99A57C" stroke-linecap="round" stroke-linejoin="round"/>
<path d="M61.3647 109.162L61.7134 100.65" stroke="#99A57C" stroke-linecap="round" stroke-linejoin="round"/>
<path d="M81.7097 109.462L81.1709 101.197" stroke="#99A57C" stroke-linecap="round" stroke-linejoin="round"/>
<path d="M74.768 94.7314L73.0247 93.5154C70.4987 91.6784 68.5307 89.1495 67.347 86.2192L65.8929 82.7495H63.5829L62.1288 86.2192C60.9451 89.1495 58.9771 91.6784 56.4511 93.5154L54.7078 94.7314C54.2051 95.1109 53.7988 95.6082 53.523 96.1817C53.2472 96.7551 53.11 97.3879 53.1229 98.0269H76.3291C76.3448 97.39 76.2112 96.7586 75.9397 96.1853C75.6681 95.612 75.2664 95.1135 74.768 94.7314ZM65.3857 96.5676H55.413C55.413 95.4732 57.1167 94.4599 57.7903 93.9045L58.9789 92.9033C60.7841 91.3393 62.1434 89.306 62.9133 87.0178L63.9197 84.2087H65.5046L66.511 87.0178C67.2811 89.3049 68.6387 91.3379 70.4414 92.9033L71.6498 93.9045C72.3234 94.4599 73.9994 95.4732 73.9994 96.5676H65.3857Z" fill="white" stroke="#99A57C" stroke-linecap="round" stroke-linejoin="round"/>
<path d="M64.724 82.6928V80.1472C64.724 80.1472 66.1464 79.0569 66.1464 77.4801C66.1464 75.9033 64.9578 75.2953 63.6582 75.7817" stroke="#99A57C" stroke-linecap="round" stroke-linejoin="round"/>
<path d="M58.1038 90.8889C58.1038 90.8889 60.7465 94.006 64.0708 94.0587C67.5971 94.1154 71.7415 90.9578 71.7415 90.9578C72.6864 91.792 73.7158 92.5203 74.8121 93.1305C76.6585 94.16 77.8709 95.6679 78.8416 98.2824C79.9233 101.197 82.3045 109.121 82.3045 109.121L75.4421 109.462L76.3811 125.392H53.5434L55.0886 109.178H48.4243C48.4243 109.178 50.6312 98.4688 51.6376 96.4097C52.644 94.3505 58.1038 90.8889 58.1038 90.8889Z" fill="white" stroke="#99A57C" stroke-linecap="round" stroke-linejoin="round"/>
<path d="M55.0889 109.162L55.4375 100.65" stroke="#99A57C" stroke-linecap="round" stroke-linejoin="round"/>
<path d="M75.4344 109.462L74.8955 101.197" stroke="#99A57C" stroke-linecap="round" stroke-linejoin="round"/>
<path d="M81.4802 175.095V81.3554C81.4802 80.8696 81.3866 80.3886 81.2048 79.9398C81.0229 79.491 80.7564 79.0833 80.4205 78.74C80.0845 78.3967 79.6857 78.1245 79.2468 77.9389C78.8079 77.7534 78.3376 77.6582 77.8628 77.6587H18.7121C17.7537 77.6587 16.8346 78.0482 16.157 78.7414C15.4793 79.4347 15.0986 80.375 15.0986 81.3554V174.949" stroke="#99A57C" stroke-width="4" stroke-linejoin="round"/>
<path d="M11.3938 94.7314L13.1372 93.5154C15.6632 91.6784 17.6312 89.1495 18.8149 86.2192L20.269 82.7495H22.5789L24.0291 86.2192C25.2128 89.1495 27.1808 91.6784 29.7068 93.5154L31.4501 94.7314C31.9528 95.1109 32.3591 95.6082 32.6349 96.1817C32.9107 96.7551 33.0479 97.3879 33.035 98.0269H9.82085C9.80656 97.389 9.94193 96.7568 10.2156 96.1835C10.4893 95.6101 10.8933 95.1122 11.3938 94.7314ZM20.7761 96.5676H30.7647C30.7647 95.4732 29.057 94.4599 28.3874 93.9045L27.1988 92.9033C25.3844 91.342 24.0156 89.3086 23.2366 87.0178L22.2302 84.2087H20.6454L19.639 87.0178C18.869 89.306 17.5098 91.3393 15.7046 92.9033L14.516 93.9045C13.8385 94.4599 12.1664 95.4732 12.1664 96.5676H20.7761Z" fill="white" stroke="#99A57C" stroke-linecap="round" stroke-linejoin="round"/>
<path d="M21.438 82.6928V80.1472C21.438 80.1472 20.0156 79.0569 20.0156 77.4801C20.0156 75.9033 21.2043 75.2953 22.5038 75.7817" stroke="#99A57C" stroke-linecap="round" stroke-linejoin="round"/>
<path d="M28.0665 90.8889C28.0665 90.8889 25.4238 94.006 22.0996 94.0587C18.5733 94.1154 14.4289 90.9578 14.4289 90.9578C13.4815 91.7925 12.4494 92.5208 11.3503 93.1305C9.50395 94.16 8.28757 95.6679 7.32081 98.2824C6.23915 101.197 3.85791 109.121 3.85791 109.121L10.7203 109.462L9.7813 125.392H32.619L31.0738 109.178H37.7381C37.7381 109.178 35.5193 98.4405 34.5209 96.4137C33.5224 94.387 28.0665 90.8889 28.0665 90.8889Z" fill="white" stroke="#99A57C" stroke-linecap="round" stroke-linejoin="round"/>
<path d="M31.0738 109.162L30.7251 100.65" stroke="#99A57C" stroke-linecap="round" stroke-linejoin="round"/>
<path d="M10.7285 109.462L11.2674 101.197" stroke="#99A57C" stroke-linecap="round" stroke-linejoin="round"/>
<path d="M14.9485 94.7314L16.6918 93.5154C19.2179 91.6784 21.1859 89.1495 22.3696 86.2192L23.8237 82.7495H26.1336L27.5956 86.2192C28.7794 89.1495 30.7474 91.6784 33.2734 93.5154L35.0167 94.7314C35.5194 95.1109 35.9257 95.6082 36.2015 96.1817C36.4773 96.7551 36.6145 97.3879 36.6016 98.0269H13.3755C13.3612 97.389 13.4966 96.7568 13.7703 96.1835C14.044 95.6101 14.448 95.1122 14.9485 94.7314ZM24.3308 96.5676H34.3035C34.3035 95.4732 32.5958 94.4599 31.9262 93.9045L30.7376 92.9033C28.9335 91.3384 27.5744 89.3054 26.8032 87.0178L25.7968 84.2087H24.212L23.2056 87.0178C22.4356 89.306 21.0764 91.3393 19.2712 92.9033L18.0826 93.9045C17.405 94.4599 15.733 95.4732 15.733 96.5676H24.3308Z" fill="white" stroke="#99A57C" stroke-linecap="round" stroke-linejoin="round"/>
<path d="M24.9922 82.6928V80.1472C24.9922 80.1472 23.5698 79.0569 23.5698 77.4801C23.5698 75.9033 24.7585 75.2953 26.058 75.7817" stroke="#99A57C" stroke-linecap="round" stroke-linejoin="round"/>
<path d="M31.6206 90.8889C31.6206 90.8889 28.9779 94.006 25.6537 94.0587C22.1274 94.1154 17.983 90.9578 17.983 90.9578C17.0393 91.7917 16.0112 92.5201 14.9163 93.1305C13.066 94.16 11.8535 95.6679 10.8868 98.2824C9.80513 101.197 7.41992 109.121 7.41992 109.121L14.2863 109.462L13.3314 125.392H36.1612L34.616 109.178H41.2803C41.2803 109.178 39.0853 98.4405 38.0749 96.4137C37.0646 94.387 31.6206 90.8889 31.6206 90.8889Z" fill="#6B6B6B" stroke="#99A57C" stroke-linecap="round" stroke-linejoin="round"/>
<path d="M34.6285 109.162L34.2798 100.65" stroke="#99A57C" stroke-linecap="round" stroke-linejoin="round"/>
<path d="M14.2822 109.462L14.8211 101.197" stroke="#99A57C" stroke-linecap="round" stroke-linejoin="round"/>
<path d="M34.5843 86.3896L28.3994 86.6937V113.795H35.7452L34.5843 86.3896Z" fill="white" stroke="#99A57C" stroke-linecap="round" stroke-linejoin="round"/>
<path d="M21.1922 94.1763L22.9355 92.9602C25.4627 91.1235 27.432 88.5946 28.6172 85.6641L30.0673 82.1943H32.3773L33.8314 85.6641C35.0151 88.5943 36.9831 91.1233 39.5091 92.9602L41.2524 94.1763C41.7551 94.5557 42.1614 95.053 42.4372 95.6265C42.713 96.1999 42.8502 96.8327 42.8373 97.4717H19.6192C19.6049 96.8338 19.7403 96.2017 20.0139 95.6283C20.2876 95.0549 20.6916 94.557 21.1922 94.1763ZM30.5745 96.0084H40.5472C40.5472 94.914 38.8435 93.9006 38.1699 93.3413L36.9813 92.3441C35.1772 90.779 33.8183 88.7461 33.0469 86.4585L32.0405 83.6495H30.4556L29.4492 86.4585C28.6728 88.7553 27.3038 90.7945 25.4871 92.3603L24.2787 93.3575C23.6051 93.9168 21.9291 94.9302 21.9291 96.0246L30.5745 96.0084Z" fill="white" stroke="#99A57C" stroke-linecap="round" stroke-linejoin="round"/>
<path d="M31.2359 82.1376V79.592C31.2359 79.592 29.8135 78.4976 29.8135 76.9208C29.8135 75.3441 31.0021 74.7401 32.3017 75.2224" stroke="#99A57C" stroke-linecap="round" stroke-linejoin="round"/>
<path d="M34.5839 86.3896L31.9015 110.576L28.6169 85.6641C28.6169 85.6641 23.0026 91.5415 21.1562 92.5549C19.3099 93.5682 17.6299 94.9626 17.1267 97.7068C16.6235 100.451 13.957 127.933 13.957 127.933L20.1697 128.278L19.5872 143.839H44.6556L43.1461 127.625H49.0219C49.0219 127.625 45.3292 97.9176 44.3228 95.8544C43.3164 93.7912 34.5839 86.3896 34.5839 86.3896Z" fill="white" stroke="#99A57C" stroke-linecap="round" stroke-linejoin="round"/>
<path d="M34.5851 86.3896L31.2886 112.186L32.081 113.26L39.4268 90.9862C39.4268 90.9862 37.105 87.1598 34.5851 86.3896Z" fill="white" stroke="#99A57C" stroke-linecap="round" stroke-linejoin="round"/>
<path d="M28.6169 85.6642L33.1218 119.713L22.8916 90.7391C22.8916 90.7391 28.6486 85.0926 28.6169 85.6642Z" fill="white" stroke="#99A57C" stroke-linecap="round" stroke-linejoin="round"/>
<path d="M44.3229 95.8342C44.3229 95.8342 49.121 119.697 50.171 125.335C51.2209 130.973 51.7558 140.094 51.7558 140.094L42.5756 140.361L39.9526 100.111" fill="white"/>
<path d="M44.3229 95.8342C44.3229 95.8342 49.121 119.697 50.171 125.335C51.2209 130.973 51.7558 140.094 51.7558 140.094L42.5756 140.361L39.9526 100.111" stroke="#99A57C" stroke-linecap="round" stroke-linejoin="round"/>
<path d="M17.7254 95.8342C17.7254 95.8342 12.9352 119.697 11.8773 125.335C10.8194 130.973 10.2925 140.094 10.2925 140.094L19.4727 140.361L22.0957 100.111" fill="white"/>
<path d="M17.7254 95.8342C17.7254 95.8342 12.9352 119.697 11.8773 125.335C10.8194 130.973 10.2925 140.094 10.2925 140.094L19.4727 140.361L22.0957 100.111" stroke="#99A57C" stroke-linecap="round" stroke-linejoin="round"/>
<path d="M33.1226 119.697V144.118" stroke="#99A57C" stroke-linecap="round" stroke-linejoin="round"/>
<path d="M30.9749 94.7314L32.7182 93.5154C35.243 91.6771 37.2107 89.1486 38.3959 86.2192L39.85 82.7495H42.156L43.6101 86.2192C44.7953 89.1497 46.7646 91.6787 49.2918 93.5154L51.0351 94.7314C51.5378 95.1109 51.9442 95.6082 52.2199 96.1817C52.4957 96.7551 52.6329 97.3879 52.62 98.0269H29.4019C29.3876 97.389 29.523 96.7568 29.7967 96.1835C30.0703 95.6101 30.4744 95.1122 30.9749 94.7314ZM40.3572 96.5676H50.3299C50.3299 95.4732 48.6222 94.4599 47.9526 93.9045L46.7442 92.9033C44.9415 91.3379 43.5838 89.3049 42.8137 87.0178L41.8073 84.2087H40.2225L39.2121 87.0178C38.4436 89.3058 37.0857 91.3391 35.2817 92.9033L34.0931 93.9045C33.4195 94.4599 31.7475 95.4732 31.7475 96.5676H40.3572Z" fill="white" stroke="#99A57C" stroke-linecap="round" stroke-linejoin="round"/>
<path d="M41.0191 82.6928V80.1472C41.0191 80.1472 39.5967 79.0569 39.5967 77.4801C39.5967 75.9033 40.7853 75.2953 42.0849 75.7817" stroke="#99A57C" stroke-linecap="round" stroke-linejoin="round"/>
<path d="M44.3671 86.945L41.6808 94.8452L38.3962 86.2195C38.3962 86.2195 32.7818 92.0969 30.9355 93.1103C29.0891 94.1237 27.4131 95.514 26.9099 98.2622C26.4067 101.01 23.7402 128.485 23.7402 128.485L29.9489 128.829L29.3902 144.37H54.4587L52.9491 128.156H58.8249C58.8249 128.156 55.1084 98.4406 54.1021 96.4138C53.0957 94.3871 44.3671 86.945 44.3671 86.945Z" fill="#99A57C" stroke="#99A57C" stroke-linecap="round" stroke-linejoin="round"/>
<path d="M46.8832 88.8337L45.3736 97.2487L42.1841 91.7563L44.2008 85.9153L46.8832 88.8337Z" fill="white" stroke="#99A57C" stroke-linecap="round" stroke-linejoin="round"/>
<path d="M38.396 86.2195L41.1774 91.9267L38.3247 97.5934L35.9712 88.1489L38.396 86.2195Z" fill="white" stroke="#99A57C" stroke-linecap="round" stroke-linejoin="round"/>
<path d="M29.9287 128.849L31.2719 102.745" stroke="#99A57C" stroke-linecap="round" stroke-linejoin="round"/>
<path d="M52.9292 128.164L50.5757 102.745" stroke="#99A57C" stroke-linecap="round" stroke-linejoin="round"/>
<path d="M40.0681 94.7314L41.8154 93.5154C44.3403 91.6771 46.3079 89.1486 47.4932 86.2192L48.9473 82.7495H51.2532L52.7073 86.2192C53.8926 89.1486 55.8603 91.6771 58.3851 93.5154L60.1284 94.7314C60.6316 95.1104 61.0383 95.6076 61.3141 96.1812C61.5899 96.7548 61.7268 97.3878 61.7133 98.0269H38.4952C38.4809 97.389 38.6162 96.7568 38.8899 96.1835C39.1636 95.6101 39.5676 95.1122 40.0681 94.7314ZM49.4505 96.5676H59.4231C59.4231 95.4732 57.7194 94.4599 57.0459 93.9045L55.8374 92.9033C54.0334 91.3391 52.6755 89.3058 51.907 87.0178L50.9006 84.2087H49.3158L48.3094 87.0178C47.5408 89.3058 46.1829 91.3391 44.3789 92.9033L43.1903 93.9045C42.5167 94.4599 40.8447 95.4732 40.8447 96.5676H49.4505Z" fill="white" stroke="#99A57C" stroke-linecap="round" stroke-linejoin="round"/>
<path d="M50.1119 82.6928V80.1472C50.1119 80.1472 48.6895 79.0569 48.6895 77.4801C48.6895 75.9033 49.8781 75.2953 51.1816 75.7817" stroke="#99A57C" stroke-linecap="round" stroke-linejoin="round"/>
<path d="M53.4638 86.945L50.7775 94.8452L47.4929 86.2195C47.4929 86.2195 41.8786 92.0969 40.0322 93.1103C38.1858 94.1237 36.5059 95.514 36.0027 98.2622C35.4995 101.01 32.833 128.485 32.833 128.485L39.0456 128.829L38.483 144.37H63.5554L62.0418 128.156H67.9177C67.9177 128.156 64.2052 98.4406 63.1988 96.4138C62.1924 94.3871 53.4638 86.945 53.4638 86.945Z" fill="#6B6B6B" stroke="#99A57C" stroke-linecap="round" stroke-linejoin="round"/>
<path d="M55.9799 88.8337L54.4703 97.2487L51.2808 91.7563L53.2935 85.9153L55.9799 88.8337Z" fill="white" stroke="#99A57C" stroke-linecap="round" stroke-linejoin="round"/>
<path d="M47.4937 86.2195L50.2751 91.9267L47.4184 97.5934L45.0688 88.1489L47.4937 86.2195Z" fill="white" stroke="#99A57C" stroke-linecap="round" stroke-linejoin="round"/>
<path d="M39.0254 128.849L40.3686 102.745" stroke="#99A57C" stroke-linecap="round" stroke-linejoin="round"/>
<path d="M62.0219 128.164L59.6724 102.745" stroke="#99A57C" stroke-linecap="round" stroke-linejoin="round"/>
<path d="M48.4558 94.7314L50.1992 93.5154C52.7252 91.6784 54.6932 89.1495 55.8769 86.2192L57.331 82.7495H59.6409L61.095 86.2192C62.2788 89.1495 64.2468 91.6784 66.7728 93.5154L68.5161 94.7314C69.0188 95.1109 69.4251 95.6082 69.7009 96.1817C69.9767 96.7551 70.1139 97.3879 70.101 98.0269H46.8829C46.8686 97.389 47.0039 96.7568 47.2776 96.1835C47.5513 95.6101 47.9553 95.1122 48.4558 94.7314ZM57.8382 96.5676H67.8108C67.8108 95.4732 66.1071 94.4599 65.4336 93.9045L64.2251 92.9033C62.4224 91.3379 61.0648 89.3049 60.2947 87.0178L59.2923 84.2087H57.7074L56.701 87.0178C55.931 89.306 54.5718 91.3393 52.7666 92.9033L51.578 93.9045C50.9005 94.4599 49.2284 95.4732 49.2284 96.5676H57.8382Z" fill="white" stroke="#99A57C" stroke-linecap="round" stroke-linejoin="round"/>
<path d="M58.4991 82.6928V80.1472C58.4991 80.1472 57.0767 79.0569 57.0767 77.4801C57.0767 75.9033 58.2653 75.2953 59.5649 75.7817" stroke="#99A57C" stroke-linecap="round" stroke-linejoin="round"/>
<path d="M65.1284 90.8889C65.1284 90.8889 62.4857 94.006 59.1615 94.0587C55.6352 94.1154 51.4908 90.9578 51.4908 90.9578C50.5459 91.792 49.5165 92.5203 48.4201 93.1305C46.5738 94.16 45.3574 95.6679 44.3906 98.2824C43.309 101.197 40.9277 109.121 40.9277 109.121L47.7901 109.462L46.8511 125.392H69.6809L68.1357 109.178H74.8C74.8 109.178 72.5931 98.4405 71.5748 96.4137C70.5566 94.387 65.1284 90.8889 65.1284 90.8889Z" fill="#A1A1A1" stroke="#99A57C" stroke-linecap="round" stroke-linejoin="round"/>
<path d="M68.1358 109.162L67.7871 100.65" stroke="#99A57C" stroke-linecap="round" stroke-linejoin="round"/>
<path d="M47.7896 109.462L48.3284 101.197" stroke="#99A57C" stroke-linecap="round" stroke-linejoin="round"/>
<path d="M54.7322 94.7314L56.4755 93.5154C59.0015 91.6784 60.9695 89.1495 62.1533 86.2192L63.6074 82.7495H65.9173L67.3714 86.2192C68.5551 89.1495 70.5231 91.6784 73.0491 93.5154L74.7925 94.7314C75.2952 95.1109 75.7015 95.6082 75.9773 96.1817C76.2531 96.7551 76.3902 97.3879 76.3773 98.0269H53.1592C53.1449 97.389 53.2803 96.7568 53.554 96.1835C53.8277 95.6101 54.2317 95.1122 54.7322 94.7314ZM64.1145 96.5676H74.0872C74.0872 95.4732 72.3835 94.4599 71.7099 93.9045L70.5213 92.9033C68.7161 91.3393 67.3569 89.306 66.5869 87.0178L65.5805 84.2087H63.9957L62.9893 87.0178C62.2192 89.3049 60.8615 91.3379 59.0588 92.9033L57.8504 93.9045C57.1768 94.4599 55.5008 95.4732 55.5008 96.5676H64.1145Z" fill="white" stroke="#99A57C" stroke-linecap="round" stroke-linejoin="round"/>
<path d="M64.7759 82.6928V80.1472C64.7759 80.1472 63.3535 79.0569 63.3535 77.4801C63.3535 75.9033 64.5422 75.2953 65.8417 75.7817" stroke="#99A57C" stroke-linecap="round" stroke-linejoin="round"/>
<path d="M71.4043 90.8889C71.4043 90.8889 68.7616 94.006 65.4373 94.0587C61.911 94.1154 57.7667 90.9578 57.7667 90.9578C56.8218 91.792 55.7923 92.5203 54.696 93.1305C52.8496 94.16 51.6372 95.6679 50.6665 98.2824C49.5888 101.197 47.2036 109.121 47.2036 109.121L54.066 109.462L53.127 125.392H75.9568L74.4116 109.178H81.0838C81.0838 109.178 78.869 98.4405 77.8626 96.4137C76.8562 94.387 71.4043 90.8889 71.4043 90.8889Z" fill="white" stroke="#99A57C" stroke-linecap="round" stroke-linejoin="round"/>
<path d="M74.4117 109.162L74.063 100.65" stroke="#99A57C" stroke-linecap="round" stroke-linejoin="round"/>
<path d="M54.0664 109.462L54.6053 101.197" stroke="#99A57C" stroke-linecap="round" stroke-linejoin="round"/>
<path d="M106.232 97.2002C106.232 97.2002 105.419 112.632 105.768 116.657C106.117 120.682 107.278 126.985 107.393 128.647C107.508 130.309 108.787 134.698 109.481 137.564C110.174 140.43 115.051 155.014 116.093 157.742C117.135 160.47 117.211 168.492 117.211 168.492C117.211 168.492 112.567 172.29 111.062 173.121C109.556 173.952 108.855 173.595 109.08 174.665C109.306 175.735 117.318 174.783 119.176 174.783C121.034 174.783 123.816 175.139 123.931 173.834C124.045 172.529 122.54 168.374 122.191 166.473C121.843 164.572 121.771 155.724 121.423 150.381C121.074 145.039 121.078 141.245 119.334 136.733C117.591 132.222 115.856 126.879 115.856 126.879L120.503 100.873L106.232 97.2002Z" fill="white" stroke="#99A57C" stroke-linecap="round" stroke-linejoin="round"/>
<path d="M116.886 164.848C116.668 162.967 115.757 159.266 115.368 157.365C114.778 154.495 110.178 140.41 109.481 137.56C108.783 134.711 107.5 130.317 107.393 128.643C107.286 126.968 106.117 120.69 105.768 116.652C105.419 112.615 106.232 97.196 106.232 97.196L120.495 100.877L115.856 126.871C115.856 126.871 117.595 132.214 119.334 136.725C121.074 141.237 121.078 145.035 121.423 150.373C121.692 154.499 121.684 161.414 121.953 164.438C120.328 165.022 118.581 165.163 116.886 164.848Z" fill="#99A57C" stroke="#99A57C" stroke-linecap="round" stroke-linejoin="round"/>
<path d="M109.088 174.645C108.854 173.575 109.552 173.931 111.069 173.1C112.222 172.468 115.198 170.101 116.541 169.019C116.96 169.139 117.323 169.408 117.567 169.777C117.812 170.186 118.006 170.624 118.146 171.082L123.241 170.324C123.637 171.775 124.006 173.161 123.946 173.814C123.831 175.119 121.046 174.762 119.192 174.762C117.337 174.762 109.318 175.727 109.088 174.645Z" fill="#666666" stroke="#99A57C" stroke-linecap="round" stroke-linejoin="round"/>
<path d="M131.178 99.1011C131.178 99.1011 130.365 106.58 127.699 113.345C125.032 120.11 122.453 129.802 122.453 129.802C122.453 129.802 127.251 135.456 128.297 140.56C129.343 145.663 129.882 155.01 130.017 156.194C130.151 157.377 131.178 161.419 132.79 163.084C134.403 164.75 135.69 165.111 134.997 166.408C134.304 167.705 130.472 172.699 129.775 173.53C129.078 174.361 126.177 174.953 124.901 174.953C123.626 174.953 124.438 174.953 125.016 172.926C125.595 170.899 126.292 165.33 126.292 163.551C126.292 161.771 124.204 155.124 121.886 151.086C119.568 147.049 116.082 136.129 115.04 133.519C113.998 130.908 112.603 128.772 112.603 127.11C112.603 125.448 113.879 109.543 114.113 106.693C114.346 103.844 114.691 100.641 114.691 100.641L131.514 97.5527L131.178 99.1011Z" fill="white" stroke="#99A57C" stroke-linecap="round" stroke-linejoin="round"/>
<path d="M124.914 174.949C123.638 174.949 124.45 174.949 125.029 172.922C125.544 171.135 126.15 166.558 126.281 164.297C126.63 163.989 127.941 162.898 128.741 163.308C129.293 163.59 129.771 164.003 130.136 164.511L132.256 162.408C132.42 162.649 132.603 162.877 132.803 163.089C134.427 164.751 135.703 165.115 135.009 166.413C134.316 167.71 130.485 172.703 129.787 173.534C129.09 174.365 126.19 174.949 124.914 174.949Z" fill="#666666" stroke="#99A57C" stroke-linecap="round" stroke-linejoin="round"/>
<path d="M114.125 106.697C114.355 103.86 114.703 100.646 114.703 100.646L132.687 97.3704L133.084 100.208C133.084 100.208 132.786 105.38 130.12 112.149C127.453 118.918 122.457 129.806 122.457 129.806C122.457 129.806 127.255 135.46 128.301 140.564C129.347 145.667 129.886 155.014 130.021 156.198C130.173 157.222 130.421 158.229 130.762 159.205C129.254 160.137 127.562 160.713 125.809 160.892C125.052 158.054 123.535 153.936 121.902 151.094C119.581 147.041 116.098 136.137 115.056 133.527C114.014 130.917 112.619 128.78 112.619 127.118C112.619 125.457 113.891 109.547 114.125 106.697Z" fill="#99A57C" stroke="#99A57C" stroke-linecap="round" stroke-linejoin="round"/>
<path d="M119.441 146.133C117.424 140.965 114.35 135.189 113.335 131.237C111.933 125.793 114.128 106.697 114.128 106.697" stroke="#7D7D7D" stroke-linecap="round" stroke-linejoin="round"/>
<path d="M120.706 149.384L120.072 147.763" stroke="#7D7D7D" stroke-linecap="round" stroke-linejoin="round"/>
<path d="M86.976 55.6972C86.976 55.6972 84.052 54.165 83.3309 53.9583C82.6097 53.7515 82.1937 54.4285 82.475 54.623C82.7563 54.8176 83.216 55.1783 83.216 55.1783C83.216 55.1783 81.8886 55.1378 82.2135 55.5837L82.8633 56.4552C82.8633 56.4552 81.6747 56.6862 81.9798 57.2253C82.2596 57.6048 82.6536 57.8796 83.101 58.0076C83.101 58.0076 81.8926 58.3441 82.4275 58.8386C82.9624 59.3331 84.5512 59.2439 84.5512 59.2439C84.9802 60.09 85.5671 60.8419 86.2787 61.4571C87.0167 62.0104 87.8905 62.343 88.8026 62.4178L90.4429 64.1486L92.6379 61.4733L86.976 55.6972Z" fill="white" stroke="#99A57C" stroke-linecap="round" stroke-linejoin="round"/>
<path d="M62.569 53.3784L64.7363 52.3164C67.882 50.7283 70.5267 48.2657 72.3673 45.2108L74.6099 41.5911L74.8556 41.6316L76.9515 41.9761L77.1932 42.0167L78.2115 46.1755C79.026 49.6687 80.7865 52.8563 83.2909 55.3727L85.0462 57.0954C85.5408 57.6143 85.9068 58.2468 86.1136 58.94C86.3204 59.6332 86.362 60.3669 86.2348 61.0799L74.285 59.11L72.1891 58.7654L60.2393 56.7955C60.3315 56.0766 60.5913 55.3909 60.9967 54.7962C61.4022 54.2016 61.9414 53.7153 62.569 53.3784ZM72.7517 57.1643L74.2058 57.4035L83.9249 59.0248C84.1151 57.8088 82.3836 56.3496 81.7259 55.5997L80.5373 54.258C78.7929 52.1717 77.6308 49.6428 77.1734 46.9375L76.5395 43.6056L76.3691 43.5813L74.919 43.3421L74.7446 43.3138L73.1241 46.2728C71.8574 48.6937 69.9769 50.7212 67.6801 52.1421L66.1547 53.0379C65.2989 53.5365 63.2465 54.3634 63.0524 55.5875L72.7517 57.1643Z" fill="white" stroke="#99A57C" stroke-linecap="round" stroke-linejoin="round"/>
<path d="M75.9335 41.7453L76.3852 38.9079C76.3852 38.9079 74.9826 37.4243 75.2599 35.6651C75.5373 33.9059 76.9755 33.4357 78.3504 34.2221" stroke="#99A57C" stroke-linecap="round" stroke-linejoin="round"/>
<path d="M59.2257 69.7543L54.6851 68.6274C54.6851 68.6274 55.6637 59.6653 57.3872 56.6009C58.9325 53.8527 60.5569 52.3854 62.8074 51.5747C64.144 51.0945 65.4259 50.468 66.6309 49.7061C66.6309 49.7061 70.7158 54.0108 74.678 54.5985C78.4103 55.1498 81.9208 52.1462 81.9208 52.1462C81.9208 52.1462 87.4162 57.0103 88.1809 59.5032C88.9456 61.996 89.532 74.3995 89.532 74.3995L82.0674 73.1835L84.195 91.6469L83.9969 91.6104L84.195 92.1211C84.195 92.1211 81.79 90.9051 77.1345 91.3712C72.479 91.8374 67.249 92.6764 65.0381 92.0846C62.8272 91.4928 55.9807 88.8419 55.9807 88.8419L59.2257 69.7543Z" fill="#F4B840" stroke="#99A57C" stroke-linecap="round" stroke-linejoin="round"/>
<path d="M82.0668 73.1715L81.5557 69.106" stroke="#99A57C" stroke-linecap="round" stroke-linejoin="round"/>
<path d="M59.2251 69.7544L61.0516 59.9451" stroke="#99A57C" stroke-linecap="round" stroke-linejoin="round"/>
<path d="M66.2019 51.2546C65.8924 53.2659 65.7361 55.2987 65.7344 57.3348" stroke="#99A57C" stroke-linecap="round" stroke-linejoin="round"/>
<path d="M65.2711 51.4937C64.9359 52.6192 64.7025 53.7739 64.5737 54.9431" stroke="#99A57C" stroke-linecap="round" stroke-linejoin="round"/>
<path d="M78.3657 65.1335C78.4529 65.5105 78.548 65.8834 78.647 66.2482" stroke="#99A57C" stroke-linecap="round" stroke-linejoin="round"/>
<path d="M76.7852 55.6565C76.7852 55.6565 77.1814 59.491 77.9738 63.4756" stroke="#99A57C" stroke-linecap="round" stroke-linejoin="round"/>
<path d="M78.0649 54.8257C78.5338 56.1512 78.9228 57.5049 79.2298 58.8791" stroke="#99A57C" stroke-linecap="round" stroke-linejoin="round"/>
<path d="M63.231 86.9937L66.365 63.2041" stroke="#99A57C" stroke-linecap="round" stroke-linejoin="round"/>
<path d="M62.7515 90.6052L62.9377 89.2148" stroke="#99A57C" stroke-linecap="round" stroke-linejoin="round"/>
<path d="M70.8308 54.5054L70.1929 66.2481" stroke="#99A57C" stroke-linecap="round" stroke-linejoin="round"/>
<path d="M92.5743 60.7436C92.5743 60.7436 90.4308 58.1332 89.5829 57.7198C88.735 57.3063 85.9932 56.7591 84.967 56.1389C83.9408 55.5187 83.6556 55.8471 84.242 56.7064C84.8284 57.5657 86.9045 58.421 86.9045 58.421C86.9045 58.421 87.792 60.4761 88.8182 61.0963L91.1559 62.5109L92.5743 60.7436Z" fill="white" stroke="#99A57C" stroke-linecap="round" stroke-linejoin="round"/>
<path d="M113.479 60.5611C113.479 60.5611 109.39 60.5611 108.788 61.6677C108.186 62.7743 105.543 69.4179 104.461 71.2825C103.38 73.147 103.38 73.6172 103.38 73.6172L92.4402 59.9329L88.6128 63.2688C88.6128 63.2688 101.355 84.9141 102.318 85.283C103.281 85.6518 109.168 80.731 109.889 80.3621C110.611 79.9933 114.581 62.2838 114.581 62.2838C114.581 62.2838 115.52 61.2989 113.479 60.5611Z" fill="#666666" stroke="#99A57C" stroke-linecap="round" stroke-linejoin="round"/>
<path d="M112.995 62.4056L126.466 58.8386C126.466 58.8386 128.511 70.399 128.511 75.4577C128.511 80.5163 131.938 99.6242 131.938 99.6242C131.938 99.6242 121.779 102.762 116.129 102.762C110.479 102.762 106.874 100.67 106.874 100.67C106.874 100.67 109.647 90.9418 109.758 85.6723C109.869 80.4029 109.156 73.2486 109.758 69.0533C110.122 66.5427 111.255 64.2152 112.995 62.4056Z" fill="white" stroke="#99A57C" stroke-linecap="round" stroke-linejoin="round"/>
<path d="M111.684 79.2231L115.892 85.2506" stroke="#99A57C" stroke-linecap="round" stroke-linejoin="round"/>
<path d="M116.05 87.5085L116.629 88.3719" stroke="#99A57C" stroke-linecap="round" stroke-linejoin="round"/>
<path d="M112.948 82.8835L115.357 86.4789" stroke="#99A57C" stroke-linecap="round" stroke-linejoin="round"/>
<path d="M109.389 65.4821C109.389 65.4821 109.029 66.8359 108.549 69.0491C108.07 71.2623 108.189 72.7377 108.427 78.0274C108.664 83.3171 108.427 84.7885 106.743 88.8501C105.059 92.9116 100.439 103.329 100.439 103.329L104.647 107.265C104.647 107.265 108.427 97.3339 109.869 91.1848C111.311 85.0358 111.196 76.552 111.672 72.3688C112.147 68.1857 116.121 61.5543 116.121 61.5543L116.961 60.0789C115.83 60.4145 114.656 60.5797 113.478 60.5693C112.424 60.5364 111.371 60.6606 110.352 60.9382" fill="#666666"/>
<path d="M109.389 65.4821C109.389 65.4821 109.029 66.8359 108.549 69.0491C108.07 71.2623 108.189 72.7377 108.427 78.0274C108.664 83.3171 108.427 84.7885 106.743 88.8501C105.059 92.9116 100.439 103.329 100.439 103.329L104.647 107.265C104.647 107.265 108.427 97.3339 109.869 91.1848C111.311 85.0358 111.196 76.552 111.672 72.3688C112.147 68.1857 116.121 61.5543 116.121 61.5543L116.961 60.0789C115.83 60.4145 114.656 60.5797 113.478 60.5693C112.424 60.5364 111.371 60.6606 110.352 60.9382" stroke="#99A57C" stroke-linecap="round" stroke-linejoin="round"/>
<path d="M125.377 58.3481C125.377 58.3481 119.247 69.2923 118.047 72.8593C116.846 76.4264 117.686 78.5341 117.924 80.9662C118.162 83.3983 121.589 109.089 121.589 109.089C121.589 109.089 129.513 106.628 132.77 105.396C136.027 104.164 137.097 102.814 137.097 102.814C137.097 102.814 131.225 82.6565 131.225 82.162C131.225 81.6674 136.316 59.2074 135.476 58.7169C134.636 58.2265 125.377 58.3481 125.377 58.3481Z" fill="#666666" stroke="#99A57C" stroke-linecap="round" stroke-linejoin="round"/>
<path d="M112.476 57.5008C112.476 57.5008 112.643 61.4934 111.894 63.3661C111.545 64.3617 110.977 65.2619 110.234 65.9968C110.234 65.9968 113.554 64.2984 114.802 62.9405C115.748 61.8111 116.583 60.5892 117.294 59.2924L115.052 55.2998L112.476 57.5008Z" fill="#99A57C" stroke="#99A57C" stroke-linecap="round" stroke-linejoin="round"/>
<path d="M107.73 40.2495C107.301 41.6512 107.003 43.0911 106.838 44.5502C106.723 46.2931 107.337 46.662 107.234 47.7078C107.131 48.7536 105.602 50.5938 105.828 51.4086C106.054 52.2233 107.413 52.6854 107.413 52.6854C107.413 52.6854 108.439 56.7388 108.78 57.8008C109.12 58.8628 110.594 58.498 112.072 58.0319C113.152 57.6703 114.211 57.2439 115.242 56.755L116.605 60.1234L124.331 56.2889L121.039 42.9126C121.039 42.9126 116.494 39.3091 113.653 39.3091L107.73 40.2495Z" fill="white" stroke="#99A57C" stroke-linecap="round" stroke-linejoin="round"/>
<path d="M115.229 56.7551L117.096 55.4863L115.986 57.8657L115.229 56.7551Z" fill="#99A57C" stroke="#99A57C" stroke-linecap="round" stroke-linejoin="round"/>
<path d="M108.324 48.2225C108.324 48.7373 108.51 49.1548 108.74 49.1548C108.97 49.1548 109.136 48.7494 109.136 48.2225C109.136 47.6955 108.954 47.2861 108.74 47.2861C108.526 47.2861 108.324 47.7036 108.324 48.2225Z" fill="#99A57C"/>
<path d="M110.15 46.3499C110.15 46.3499 109.069 44.3961 107.658 45.5879" stroke="#99A57C" stroke-linecap="round" stroke-linejoin="round"/>
<path d="M111.228 52.8921C111.228 52.8921 110.106 54.3594 108.823 53.6582" stroke="#99A57C" stroke-linecap="round" stroke-linejoin="round"/>
<path d="M120.198 62.3244C120.198 62.3244 119.972 62.5311 118.455 63.0905C116.327 63.8687 115.63 63.3458 115.63 63.3458C115.272 61.8279 114.991 60.2924 114.786 58.7452C114.703 57.4724 115.055 57.6751 117.294 57.3103C119.794 56.9049 123.578 55.3322 124.16 55.3322C124.743 55.3322 125.099 55.2714 125.099 56.0375C125.099 56.8036 125.848 59.6045 125.848 59.6045C124.06 60.7058 122.167 61.6172 120.198 62.3244Z" fill="white" stroke="#99A57C" stroke-linecap="round" stroke-linejoin="round"/>
<path d="M118.186 48.0361C118.186 48.0361 116.708 48.0361 116.027 47.57C115.569 47.1833 115.249 46.6535 115.115 46.0621C115.115 46.0621 110.23 44.7812 108.075 42.0087C105.919 39.2361 104.437 38.9848 105.46 37.708C106.482 36.4312 113.526 34.3356 115.801 33.4073C118.075 32.4791 121.498 33.991 124.668 36.646C127.838 39.301 127.739 39.6658 128.19 43.0383C128.642 46.4107 131.713 58.1494 131.713 58.1494L128.543 58.8466C128.543 58.8466 126.724 62.5677 123.432 64.4241C120.139 66.2806 118.206 66.5198 118.206 66.5198C118.206 66.5198 120.817 60.5896 120.817 55.4742C120.817 50.3587 118.186 48.0361 118.186 48.0361Z" fill="#99A57C" stroke="#99A57C" stroke-linecap="round" stroke-linejoin="round"/>
<path d="M116.708 49.0819C116.708 49.0819 117.615 44.3151 119.775 45.8392C121.934 47.3633 119.319 52.6976 118.527 52.58C117.734 52.4625 117.049 51.5343 117.049 51.5343" fill="white"/>
<path d="M116.708 49.0819C116.708 49.0819 117.615 44.3151 119.775 45.8392C121.934 47.3633 119.319 52.6976 118.527 52.58C117.734 52.4625 117.049 51.5343 117.049 51.5343" stroke="#99A57C" stroke-linecap="round" stroke-linejoin="round"/>
<path d="M159.21 64.8375C159.21 64.8375 162.672 64.1282 163.481 64.1282C164.289 64.1282 164.519 64.9389 164.17 65.0726C163.821 65.2064 163.247 65.4293 163.247 65.4293C163.247 65.4293 164.634 65.782 164.17 66.1346L163.247 66.844C163.247 66.844 164.404 67.4358 163.94 67.906C163.543 68.2156 163.057 68.3823 162.558 68.3802C162.558 68.3802 163.711 69.0896 163.017 69.4422C162.324 69.7949 160.707 69.2071 160.707 69.2071C160.02 69.9525 159.198 70.5541 158.286 70.9785C157.364 71.3301 156.363 71.4115 155.398 71.2136L153.195 72.4985L151.693 69.0734L159.21 64.8375Z" fill="white" stroke="#99A57C" stroke-linecap="round" stroke-linejoin="round"/>
<path d="M131.027 58.7169C131.027 58.7169 134.153 57.8576 135.477 58.7169C136.8 59.5762 137.161 66.8237 137.161 66.8237L141.123 76.2925L152.304 68.5424L155.909 73.9537C155.909 73.9537 141.602 87.3624 140.402 87.8529C139.996 88.0657 139.528 88.1206 139.086 88.0072C138.644 87.8939 138.256 87.6201 137.997 87.2368C137.517 86.6247 128.86 71.6189 128.86 71.6189" fill="#666666"/>
<path d="M131.027 58.7169C131.027 58.7169 134.153 57.8576 135.477 58.7169C136.8 59.5762 137.161 66.8237 137.161 66.8237L141.123 76.2925L152.304 68.5424L155.909 73.9537C155.909 73.9537 141.602 87.3624 140.402 87.8529C139.996 88.0657 139.528 88.1206 139.086 88.0072C138.644 87.8939 138.256 87.6201 137.997 87.2368C137.517 86.6247 128.86 71.6189 128.86 71.6189" stroke="#99A57C" stroke-linecap="round" stroke-linejoin="round"/>
<path d="M165.343 72.2229L158.326 72.5674V103.317H166.659L165.343 72.2229Z" fill="#666666" stroke="#99A57C" stroke-linecap="round" stroke-linejoin="round"/>
<path d="M150.148 81.0552L152.129 79.6568C154.992 77.5775 157.224 74.7162 158.572 71.4L160.22 67.4641H162.839L164.487 71.4C165.835 74.7162 168.068 77.5775 170.93 79.6568L172.911 81.0552C173.478 81.488 173.936 82.0534 174.247 82.7043C174.557 83.3552 174.71 84.0726 174.694 84.7966H148.365C148.349 84.0726 148.502 83.3552 148.813 82.7043C149.123 82.0534 149.581 81.488 150.148 81.0552ZM160.795 83.1387H172.11C172.11 81.8984 170.173 80.7472 169.408 80.1149L168.037 78.9839C165.993 77.2067 164.453 74.8994 163.58 72.3039L162.435 69.1179H160.624L159.479 72.3039C158.606 74.8994 157.067 77.2067 155.022 78.9839L153.651 80.1149C152.886 80.7472 150.988 81.8984 150.988 83.1387H160.795Z" fill="white" stroke="#99A57C" stroke-linecap="round" stroke-linejoin="round"/>
<path d="M161.543 67.3993V64.5092C161.543 64.5092 159.931 63.2689 159.931 61.4813C159.931 59.6938 161.274 59.0047 162.756 59.5559" stroke="#99A57C" stroke-linecap="round" stroke-linejoin="round"/>
<path d="M165.342 72.2229L162.307 99.6565L158.583 71.396C158.583 71.396 152.216 78.0639 150.12 79.2353C148.024 80.4068 146.118 81.9633 145.548 85.0804C144.977 88.1974 141.93 119.372 141.93 119.372L148.975 119.778L148.341 137.406H176.769L175.058 118.999H181.722C181.722 118.999 177.534 85.2911 176.389 82.9523C175.244 80.6135 165.342 72.2229 165.342 72.2229Z" fill="#F4B840" stroke="#99A57C" stroke-linecap="round" stroke-linejoin="round"/>
<path d="M165.343 72.2229L161.603 101.489L162.495 102.705L170.815 77.4397C170.815 77.4397 168.196 73.0984 165.343 72.2229Z" fill="#99A57C" stroke="#99A57C" stroke-linecap="round" stroke-linejoin="round"/>
<path d="M158.572 71.4001L163.683 110.013L152.078 77.1316C152.078 77.1316 158.607 70.7515 158.572 71.4001Z" fill="#99A57C" stroke="#99A57C" stroke-linecap="round" stroke-linejoin="round"/>
<path d="M176.389 82.9402C176.389 82.9402 181.837 110.013 183.026 116.405C184.215 122.798 184.813 133.15 184.813 133.15L174.396 133.454L171.421 87.7881" fill="#F4B840"/>
<path d="M176.389 82.9402C176.389 82.9402 181.837 110.013 183.026 116.405C184.215 122.798 184.813 133.15 184.813 133.15L174.396 133.454L171.421 87.7881" stroke="#99A57C" stroke-linecap="round" stroke-linejoin="round"/>
<path d="M174.21 134.208H185.047C185.294 134.208 185.495 134.003 185.495 133.75V130.596C185.495 130.343 185.294 130.138 185.047 130.138H174.21C173.963 130.138 173.763 130.343 173.763 130.596V133.75C173.763 134.003 173.963 134.208 174.21 134.208Z" fill="#99A57C" stroke="#99A57C" stroke-linecap="round" stroke-linejoin="round"/>
<path d="M146.214 82.9402C146.214 82.9402 140.77 110.013 139.581 116.405C138.393 122.798 137.794 133.15 137.794 133.15L148.211 133.454L151.186 87.7881" fill="#F4B840"/>
<path d="M146.214 82.9402C146.214 82.9402 140.77 110.013 139.581 116.405C138.393 122.798 137.794 133.15 137.794 133.15L148.211 133.454L151.186 87.7881" stroke="#99A57C" stroke-linecap="round" stroke-linejoin="round"/>
<path d="M137.481 134.208H148.317C148.565 134.208 148.765 134.003 148.765 133.75V130.596C148.765 130.343 148.565 130.138 148.317 130.138H137.481C137.234 130.138 137.033 130.343 137.033 130.596V133.75C137.033 134.003 137.234 134.208 137.481 134.208Z" fill="#99A57C" stroke="#99A57C" stroke-linecap="round" stroke-linejoin="round"/>
<path d="M163.683 110.013V137.244" stroke="#99A57C" stroke-linecap="round" stroke-linejoin="round"/>
<path d="M153.544 68.3113C154.641 67.3426 155.997 65.1537 156.492 64.951C157.359 64.5862 160.133 64.2011 161.191 63.6418C162.249 63.0824 162.518 63.431 161.88 64.2579C161.242 65.0848 159.138 65.8104 159.138 65.8104C159.138 65.8104 158.136 67.8046 157.078 68.364L156.377 68.7491" fill="white"/>
<path d="M153.544 68.3113C154.641 67.3426 155.997 65.1537 156.492 64.951C157.359 64.5862 160.133 64.2011 161.191 63.6418C162.249 63.0824 162.518 63.431 161.88 64.2579C161.242 65.0848 159.138 65.8104 159.138 65.8104C159.138 65.8104 158.136 67.8046 157.078 68.364L156.377 68.7491" stroke="#99A57C" stroke-linecap="round" stroke-linejoin="round"/>
<path d="M1.04883 175.062H188.458" stroke="#99A57C" stroke-linecap="round" stroke-linejoin="round"/>
</svg>
