<svg width="490" height="463" viewBox="0 0 490 463" fill="none" xmlns="http://www.w3.org/2000/svg">
<ellipse cx="337.051" cy="371.558" rx="142.468" ry="45.3739" transform="rotate(-13.1333 337.051 371.558)" fill="#C5C5C5"/>
<path d="M143.429 35.2992L293.566 43.9646C301.287 44.4806 305.404 50.6558 305.404 58.3747V415.813C305.404 422.059 299.086 427.909 290.221 427.909L138.394 410.666C131.96 409.895 128.099 404.491 128.099 398.056V47.5682C128.097 40.8001 134.661 34.7919 143.429 35.2992Z" fill="white"/>
<path d="M181.624 224.357C181.121 225.392 169.787 213.548 168.501 213.035C169.249 212.435 170.133 212.028 171.075 211.849C172.017 211.669 172.988 211.723 173.905 212.005C175.192 212.262 177.249 213.542 178.536 212.005C178.787 211.72 178.925 211.354 178.925 210.975C178.925 210.596 178.787 210.229 178.536 209.945C177.992 209.371 177.388 208.855 176.736 208.408C177.697 208.876 178.798 208.967 179.823 208.665C182.219 208.067 180.853 205.81 180.853 205.577C184.031 203.106 187.385 200.869 190.889 198.886C193.629 197.589 196.014 195.647 197.837 193.225C199.374 190.394 199.374 186.792 200.925 183.705C202.629 181.096 204.71 178.754 207.102 176.757C207.388 176.543 207.627 176.273 207.804 175.963C207.981 175.652 208.092 175.309 208.13 174.954C208.108 174.457 207.917 173.983 207.59 173.609C207.263 173.235 206.818 172.984 206.329 172.896C205.356 172.792 204.373 172.97 203.498 173.41C205.147 171.665 207.311 170.493 209.673 170.065C210.446 169.809 217.908 168.528 217.908 168.265C217.072 174.132 224.468 177.314 230.004 175.47C230.872 175.093 231.645 174.528 232.268 173.816C232.89 173.104 233.347 172.262 233.605 171.352C251.876 177.527 262.171 198.115 264.486 216.129C265.245 219.164 263.814 220 252.392 234.136C251.066 223.05 249.09 212.051 246.474 201.196C246.215 210.975 245.202 221.01 244.937 230.789C244.693 239.54 243.65 249.576 245.964 258.325C227.517 259.135 209.036 258.788 190.632 257.286C190.388 236.749 193.162 216.287 198.867 196.556C195.779 201.187 193.206 205.819 190.375 210.709C187.544 215.6 183.993 219.491 181.624 224.357Z" fill="#FFE55D"/>
<path d="M302.9 38.7533L151.22 30C140.819 30.4019 127 36.7132 127 47.568V398.05C127 405.02 131.256 410.909 138.268 411.75L290.22 429C302.557 429 315.764 418.064 315.764 411.184V53.7432C315.766 45.8946 310.983 39.3088 302.9 38.7533ZM290.345 426.817L138.525 409.579C132.622 408.867 129.196 403.915 129.196 398.063V47.568C129.196 41.5114 134.444 35.8787 145.545 36.5199L293.492 45.0602C300.739 45.5433 304.046 51.0662 304.046 58.1088V415.556C304.048 422.23 296.696 426.78 290.345 426.817Z" fill="#48583B"/>
<path d="M143.032 55.8032L143.546 108.042C168.508 107.012 193.213 111.643 217.916 113.703C241.591 115.504 265.266 117.047 288.941 119.878L288.297 65.8389L143.032 55.8032ZM150.753 94.6592C154.355 89.7709 155.898 78.7052 155.898 73.044V69.4403H158.472V73.123C159.552 73.1801 160.648 73.2614 161.817 73.3536V69.9674H164.39C164.39 77.2866 165.049 90.1706 168.765 96.4709C163.615 95.6891 155.38 95.173 150.749 94.6592H150.753ZM197.071 99.0336L195.013 83.0797C194.24 87.9702 192.697 98.5197 192.44 98.5197C192.183 98.5197 186.778 98.0059 184.719 98.0059C184.719 98.0059 188.836 78.1914 189.352 74.0695C189.609 73.8104 189.866 73.5534 190.123 73.5534C192.183 73.5534 197.844 73.8104 199.645 73.8104C200.161 73.8104 200.418 74.0695 200.418 74.3264C202.219 83.0753 204.021 90.7964 205.049 99.5453C202.381 99.5112 199.717 99.3404 197.067 99.0336H197.071ZM241.848 87.1972C238.94 88.5148 238.503 88.8266 238.503 88.2271C238.051 87.4167 237.705 86.5517 237.473 85.6534C237.473 90.5417 237.989 94.9161 237.732 100.064C234.129 99.8066 230.011 99.5497 226.151 99.0336C226.23 94.2156 226.572 89.4042 227.181 84.6235C226.581 85.6273 225.891 86.5748 225.121 87.4541C222.187 85.9872 222.033 85.5458 222.033 84.6235C222.826 83.0731 223.774 81.6062 224.864 80.249C226.152 78.7581 227.854 77.6835 229.754 77.1615C230.736 79.1247 232.842 80.506 234.386 78.1914C235.299 78.3757 236.171 78.7239 236.959 79.2191C239.528 80.9963 241.358 83.652 242.104 86.6855C242.1 86.9402 242.129 87.1972 241.852 87.1972H241.848ZM279.676 102.13C278.514 103.292 278.797 102.13 277.875 102.13C277.361 102.13 277.102 102.644 276.845 103.158C276.628 103.32 276.375 103.428 276.108 103.473C275.84 103.517 275.566 103.498 275.308 103.415C274.794 102.901 274.278 102.13 273.771 102.13C272.743 102.13 271.97 103.667 270.94 103.158C270.099 102.317 269.403 101.44 268.11 101.871C267.596 101.871 267.339 102.387 266.823 102.387C266.309 102.644 265.795 102.644 265.536 102.13C265.279 101.871 265.279 101.871 265.279 101.614C265.022 101.1 264.249 101.1 263.742 101.614C261.937 103.421 261.686 100.843 260.911 100.843C260.397 100.843 259.881 101.357 259.374 101.1C258.867 100.843 259.888 97.4964 260.145 96.9825C263.439 85.4711 263.794 84.2809 265.292 81.2855L274.814 81.7994C276.329 87.184 279.671 97.9642 279.671 102.123L279.676 102.13Z" fill="#FFB43B"/>
<path d="M213.02 52.2676C213.721 52.2676 214.393 51.9891 214.889 51.4935C215.385 50.9979 215.663 50.3256 215.663 49.6247C215.663 48.9238 215.385 48.2515 214.889 47.7559C214.393 47.2603 213.721 46.9818 213.02 46.9818C212.319 46.9818 211.647 47.2603 211.152 47.7559C210.656 48.2515 210.377 48.9238 210.377 49.6247C210.377 50.3256 210.656 50.9979 211.152 51.4935C211.647 51.9891 212.319 52.2676 213.02 52.2676Z" fill="#48583B"/>
<path d="M222.831 392.79C221.195 379.959 206.141 375.345 199.061 385.486C191.951 395.671 199.94 410.367 211.521 408.887C218.77 407.965 223.843 400.742 222.831 392.79Z" fill="#48583B"/>
<path d="M255.541 267.715C255.56 267.555 255.544 267.392 255.493 267.239C255.443 267.086 255.359 266.946 255.248 266.829C255.136 266.712 255.001 266.621 254.85 266.563C254.699 266.505 254.538 266.48 254.377 266.492C254.162 266.505 253.955 266.582 253.784 266.714L179.72 263.152C179.425 263.115 179.127 263.193 178.889 263.371L168.59 255.132C168.199 254.425 167.6 253.855 166.874 253.501C166.148 253.146 165.33 253.023 164.532 253.149C163.734 253.274 162.993 253.644 162.413 254.206C161.833 254.769 161.441 255.497 161.291 256.291C161.178 256.885 161.203 257.496 161.365 258.078C161.527 258.66 161.82 259.197 162.223 259.647C162.626 260.097 163.127 260.448 163.687 260.673C164.247 260.898 164.852 260.991 165.454 260.945C166.26 260.881 167.027 260.571 167.65 260.058L179.408 269.738C181.063 282.088 183.47 295.244 186.725 309.766C186.778 310.003 186.907 310.215 187.094 310.37C187.28 310.525 187.512 310.614 187.755 310.623C188.359 310.645 188.958 310.671 189.553 310.695L189.698 314.448C188.585 314.75 187.606 315.42 186.921 316.349C186.237 317.277 185.886 318.41 185.925 319.563C185.857 320.217 185.925 320.878 186.125 321.505C186.326 322.131 186.655 322.709 187.092 323.201C187.528 323.694 188.063 324.09 188.663 324.363C189.262 324.636 189.912 324.781 190.57 324.787C191.228 324.792 191.88 324.661 192.484 324.401C193.088 324.141 193.632 323.759 194.081 323.278C194.529 322.795 194.87 322.225 195.084 321.602C195.298 320.98 195.38 320.319 195.324 319.664L237.426 323.836C237.262 324.883 237.43 325.955 237.906 326.901C238.382 327.848 239.143 328.621 240.081 329.113C240.705 329.438 241.39 329.629 242.093 329.673C246.946 329.673 248.643 322.391 244.275 319.841L244.438 315.318C244.528 315.318 246.634 315.52 246.726 315.52C246.987 315.519 247.239 315.426 247.438 315.257C247.636 315.087 247.768 314.853 247.809 314.595C255.266 268.418 255.585 268.064 255.541 267.715ZM219.254 267.252L240.915 268.293L239.769 278.374L219.083 277.167L219.254 267.252ZM219.046 279.365L239.521 280.562L238.357 290.81L218.874 289.289L219.046 279.365ZM218.837 291.487L238.109 292.993L237.116 301.72L218.683 300.343L218.837 291.487ZM218.646 302.541L236.873 303.903L235.917 312.316L218.512 310.618L218.646 302.541ZM217.06 267.146L216.889 277.05L195.103 275.779L194.154 266.055L217.06 267.146ZM197.349 298.749L196.471 289.745L216.645 291.322L216.494 300.183L197.349 298.749ZM216.454 302.377L216.316 310.412C210.301 309.852 204.442 309.358 198.348 308.971L197.569 300.967L216.454 302.377ZM196.251 287.521L195.32 277.981L216.841 279.237L216.672 289.119L196.251 287.521ZM181.072 265.411L191.936 265.934L192.885 275.636L182.381 275.023C181.902 271.825 181.465 268.621 181.072 265.411ZM182.719 277.243L193.1 277.85L194.029 287.345L184.278 286.583C183.729 283.476 183.209 280.363 182.719 277.246V277.243ZM186.452 297.934C185.837 294.902 185.251 291.863 184.696 288.819L194.257 289.565L195.135 298.58L186.452 297.934ZM186.911 300.17L195.348 300.8L196.135 308.835C193.706 308.695 191.235 308.572 188.697 308.468C188.064 305.653 187.467 302.888 186.905 300.172L186.911 300.17ZM242.114 319.242C241.289 319.25 240.481 319.483 239.777 319.916C239.073 320.348 238.5 320.964 238.12 321.697L194.922 317.424C194.664 316.752 194.26 316.145 193.74 315.648C193.219 315.15 192.595 314.774 191.912 314.547L191.767 310.814C208.735 311.631 223.055 313.359 242.262 315.129L242.114 319.242ZM245.817 313.236C243.153 312.997 240.59 312.759 238.107 312.522L239.066 304.063L247.205 304.672L245.817 313.236ZM247.558 302.497L239.315 301.88L240.305 293.162L248.973 293.839L247.558 302.497ZM249.331 291.665L240.547 290.979L241.717 280.687L251.05 281.234L249.331 291.665ZM251.419 279.053L241.976 278.502L243.125 268.4L253.132 268.881L251.419 279.053Z" fill="#48583B"/>
<path d="M265.062 216.498C262.893 199.621 253.312 177.534 233.44 170.821C233.299 170.773 233.15 170.755 233.002 170.766C232.854 170.778 232.71 170.819 232.578 170.888C232.447 170.957 232.33 171.052 232.236 171.167C232.143 171.283 232.073 171.416 232.032 171.559C231.853 172.281 231.494 172.946 230.987 173.492C230.481 174.038 229.845 174.446 229.138 174.679C224.392 176.15 217.763 173.678 218.479 168.671C218.503 168.504 218.488 168.335 218.436 168.175C218.384 168.015 218.296 167.869 218.179 167.748C218.061 167.628 217.918 167.536 217.759 167.479C217.601 167.423 217.431 167.404 217.264 167.424C212.728 167.914 208.288 169.07 204.088 170.854C203.83 170.976 203.63 171.194 203.53 171.461C203.43 171.728 203.438 172.024 203.552 172.285C203.666 172.547 203.878 172.754 204.142 172.862C204.406 172.97 204.702 172.971 204.967 172.865C208.567 171.328 212.36 170.287 216.241 169.771C216.63 177.852 230.532 180.215 233.741 173.258C250.819 179.655 260.67 199.582 262.906 216.904C263.479 219.19 262.541 219.695 252.653 231.94C251.321 221.686 249.443 211.51 247.024 201.457C246.963 201.198 246.81 200.97 246.593 200.816C246.376 200.662 246.11 200.592 245.845 200.62C245.581 200.648 245.336 200.77 245.155 200.965C244.974 201.159 244.869 201.411 244.859 201.677C244.782 204.633 244.639 207.645 244.455 210.645C228.528 212.935 212.285 211.388 197.076 206.132C197.791 203.198 198.568 200.28 199.406 197.379C199.485 197.125 199.468 196.85 199.36 196.607C199.252 196.363 199.059 196.167 198.818 196.055C198.576 195.943 198.302 195.923 198.046 195.999C197.791 196.074 197.572 196.24 197.43 196.466C192.948 203.19 190.326 208.675 185.22 216.596C183.786 218.821 182.308 221.114 180.958 223.555C176.538 220.647 172.621 217.037 169.361 212.87C169.183 212.634 168.919 212.478 168.627 212.437C168.482 212.417 168.335 212.425 168.193 212.463C168.051 212.501 167.919 212.566 167.803 212.656C167.688 212.746 167.592 212.859 167.52 212.987C167.449 213.115 167.404 213.256 167.389 213.401C167.37 213.546 167.382 213.694 167.424 213.834C167.465 213.975 167.534 214.106 167.628 214.218C171.289 218.896 175.738 222.901 180.773 226.052C180.903 226.134 181.047 226.188 181.199 226.21C181.35 226.233 181.504 226.224 181.652 226.184C182.506 225.964 181.698 226.129 187.076 217.787C204.984 190.027 188.374 205.757 189.019 257.82C189.024 258.092 189.13 258.354 189.316 258.553C189.502 258.753 189.755 258.876 190.027 258.9C208.476 260.407 226.999 260.751 245.492 259.932C245.656 259.925 245.816 259.882 245.961 259.804C246.106 259.727 246.232 259.618 246.329 259.486C246.427 259.354 246.493 259.201 246.524 259.04C246.554 258.878 246.548 258.712 246.506 258.553C244.235 249.971 245.254 240.181 245.514 231.323C245.7 224.296 246.293 216.994 246.695 209.984C251.59 233.213 249.875 235.201 251.572 235.693C251.78 235.753 252.001 235.75 252.207 235.686C252.413 235.621 252.596 235.496 252.732 235.328C265.209 219.835 263.824 221.768 264.698 219.956C265.259 218.893 265.39 217.654 265.062 216.498ZM196.569 208.284C211.894 213.593 228.266 215.164 244.321 212.868C243.823 220.799 243.535 224.227 243.302 231.793C226.509 234.789 209.264 234.095 192.766 229.759C193.657 222.539 194.927 215.371 196.569 208.284ZM191.206 256.799C191.142 248.501 191.576 240.207 192.504 231.962C209.066 236.271 226.359 236.978 243.216 234.035C242.902 241.842 242.318 250.096 244.06 257.795C226.437 258.527 208.788 258.193 191.206 256.799Z" fill="#48583B"/>
<path d="M288.748 64.6048C173.825 56.6992 149.506 55.0192 143.869 54.8545C143.524 54.847 143.186 54.943 142.896 55.1302C142.607 55.3173 142.381 55.587 142.246 55.9042C142.158 56.115 142.113 56.3412 142.112 56.5696V366.142C142.112 367.258 141.144 367.145 143.258 367.345C266.122 378.938 285.133 381.092 288.429 381.07C288.956 381.07 289.49 380.963 289.492 379.533V65.8323C289.488 65.2548 289.325 64.6443 288.748 64.6048ZM287.167 118.859L251.431 115.732V64.3325L287.938 66.8623L287.167 118.859ZM214.633 112.469V61.7917L249.235 64.1809V115.537L214.633 112.469ZM178.605 109.276V59.3058L212.435 61.6402V112.276L178.605 109.276ZM176.409 59.1543V109.08L144.765 106.265V56.9781L176.409 59.1543ZM287.035 378.582L144.319 365.147V108.397L287.035 121.163V378.582Z" fill="#48583B"/>
<path d="M191.921 171.862C193.719 170 196.084 168.787 198.646 168.415C201.207 168.043 203.82 168.531 206.074 169.804C205.036 170.318 204.141 171.08 203.467 172.023C202.794 172.966 202.363 174.06 202.213 175.208C202.966 174.229 203.935 173.436 205.044 172.892C206.331 172.635 207.875 173.405 207.875 174.692C207.875 175.979 206.845 176.495 206.074 177.009C203.149 179.282 200.775 182.184 199.126 185.501L191.921 171.862Z" fill="white"/>
<path d="M175.193 212.775C174.082 212.283 172.866 212.073 171.654 212.163C170.442 212.253 169.271 212.641 168.245 213.291C166.185 214.319 165.157 214.062 163.87 212.005C161.811 209.174 160.207 204.758 162.333 201.464C165.335 196.778 173.913 195.803 178.544 198.119C179.324 198.51 179.954 199.143 180.347 199.92C180.444 200.462 180.342 201.021 180.06 201.494C179.777 201.967 179.333 202.322 178.81 202.494C177.71 202.751 176.565 202.751 175.465 202.494C177.266 202.494 183.186 204.551 180.87 207.125C180.012 207.63 179.034 207.897 178.039 207.897C177.043 207.897 176.066 207.63 175.208 207.125C176.495 208.412 179.069 208.928 179.069 210.729C179.069 212.529 176.737 213.291 175.193 212.775Z" fill="white"/>
<g clip-path="url(#clip0_304_15979)">
<path d="M215.513 7.64078C181.993 10.4783 169.674 38.8501 179.766 55.3883C186.888 67.0569 198.955 82.8267 221.45 79.044C243.943 75.2604 245.838 54.4432 233.992 51.6115C222.146 48.7808 179.942 61.9871 184.712 92.4961C188.155 114.509 217.998 120.854 217.998 120.854" stroke="#F4B840" stroke-width="2" stroke-dasharray="7"/>
<path fill-rule="evenodd" clip-rule="evenodd" d="M233.933 -7.29063C234.061 -7.81511 234.23 -8.31777 234.418 -8.80905C233.379 -8.64497 232.322 -8.41451 231.258 -8.10248C230.104 -7.76484 229.027 -7.32193 228.014 -6.81453C227.575 -5.98371 227.218 -5.09599 226.987 -4.14283C225.561 1.72504 228.927 7.63939 234.583 9.57606C235.196 9.45466 235.811 9.3143 236.427 9.1341C238.15 8.62954 239.738 7.96185 241.175 7.18794C235.652 4.76473 232.473 -1.28239 233.933 -7.29063Z" fill="#F4B840"/>
<path fill-rule="evenodd" clip-rule="evenodd" d="M225.858 -4.2305C225.993 -4.81019 226.176 -5.3645 226.379 -5.90613C221.486 -2.77152 218.746 2.09337 219.198 4.93032C216.072 6.27415 214.08 7.4062 214.08 7.4062C214.08 7.4062 216.439 7.22663 219.877 6.56594C221.718 9.25651 226.822 11.058 232.465 10.412C227.353 7.76826 224.467 1.7518 225.858 -4.2305Z" fill="#F4B840"/>
<path fill-rule="evenodd" clip-rule="evenodd" d="M241.911 -1.96739C240.701 -2.25874 239.952 -3.47829 240.243 -4.69971C240.533 -5.91272 241.755 -6.66443 242.964 -6.37309C244.179 -6.07987 244.921 -4.85565 244.632 -3.64171C244.34 -2.42122 243.127 -1.67511 241.911 -1.96739ZM236.26 -8.68568C236.019 -8.12584 235.814 -7.53523 235.668 -6.92354C234.385 -1.56064 237.348 3.8339 242.373 5.70502C246.566 3.0851 248.92 -0.624636 247.965 -3.84571C246.903 -7.45877 242.02 -9.32462 236.26 -8.68568Z" fill="#F4B840"/>
<path d="M75.709 146.981V149.884" stroke="#F4B840" stroke-width="2.921" stroke-linecap="round"/>
<path d="M69.9023 149.883L71.8376 151.819" stroke="#F4B840" stroke-width="2.921" stroke-linecap="round"/>
<path d="M67 155.689H69.9029" stroke="#F4B840" stroke-width="2.921" stroke-linecap="round"/>
<path d="M69.9023 161.495L71.8376 159.56" stroke="#F4B840" stroke-width="2.921" stroke-linecap="round"/>
<path d="M75.709 164.398V161.495" stroke="#F4B840" stroke-width="2.921" stroke-linecap="round"/>
<path d="M81.5154 161.495L79.5801 159.56" stroke="#F4B840" stroke-width="2.921" stroke-linecap="round"/>
<path d="M84.4166 155.689H81.5137" stroke="#F4B840" stroke-width="2.921" stroke-linecap="round"/>
<path d="M81.5154 149.883L79.5801 151.819" stroke="#F4B840" stroke-width="2.921" stroke-linecap="round"/>
<path d="M224.725 27.9612V29.8965" stroke="#F4B840" stroke-width="2.921" stroke-linecap="round"/>
<path d="M219.887 32.7993H221.822" stroke="#F4B840" stroke-width="2.921" stroke-linecap="round"/>
<path d="M224.725 38.6052V36.6699" stroke="#F4B840" stroke-width="2.921" stroke-linecap="round"/>
<path d="M230.531 33.767H228.596" stroke="#F4B840" stroke-width="2.921" stroke-linecap="round"/>
<path d="M118.285 104.405V107.307" stroke="#F4B840" stroke-width="2.921" stroke-linecap="round"/>
<path d="M109.576 113.113H112.479" stroke="#F4B840" stroke-width="2.921" stroke-linecap="round"/>
<path d="M117.316 120.854V117.951" stroke="#F4B840" stroke-width="2.921" stroke-linecap="round"/>
<path d="M126.026 113.113H123.123" stroke="#F4B840" stroke-width="2.921" stroke-linecap="round"/>
<path d="M315.683 206.006C317.82 206.006 319.553 207.739 319.553 209.877C319.553 212.015 317.82 213.748 315.683 213.748C313.545 213.748 311.812 212.015 311.812 209.877" stroke="#F4B840" stroke-width="2.921" stroke-linecap="round"/>
<path d="M334.003 258.782C334.497 262.237 332.108 265.44 328.67 265.935C325.233 266.431 322.045 264.031 321.553 260.575C321.06 257.119 323.447 253.916 326.886 253.421" stroke="#F4B840" stroke-width="2.921" stroke-linecap="round"/>
<path fill-rule="evenodd" clip-rule="evenodd" d="M334.068 169.236C336.414 168.494 340.01 165.589 340.842 162.463C341.597 165.226 344.76 168.494 347.615 168.742C344.402 169.895 341.33 173.32 340.842 176.01C340.51 173.268 336.261 169.635 334.068 169.236Z" fill="#937539"/>
<path fill-rule="evenodd" clip-rule="evenodd" d="M91.1914 204.555C92.3648 204.184 94.1623 202.731 94.5786 201.168C94.9557 202.55 96.5369 204.184 97.9649 204.308C96.3579 204.884 94.8217 206.596 94.5786 207.942C94.4121 206.571 92.2883 204.754 91.1914 204.555Z" fill="#937539"/>
<path fill-rule="evenodd" clip-rule="evenodd" d="M112.48 76.343C112.48 77.9469 111.18 79.2459 109.577 79.2459C107.973 79.2459 106.674 77.9469 106.674 76.343C106.674 74.7392 107.973 73.4401 109.577 73.4401C111.18 73.4401 112.48 74.7392 112.48 76.343Z" fill="#CC9F43"/>
<path fill-rule="evenodd" clip-rule="evenodd" d="M391.159 70.5367C391.159 72.6752 389.427 74.4077 387.289 74.4077C385.15 74.4077 383.418 72.6752 383.418 70.5367C383.418 68.3991 385.15 66.6666 387.289 66.6666C389.427 66.6666 391.159 68.3991 391.159 70.5367Z" fill="#937539"/>
<path fill-rule="evenodd" clip-rule="evenodd" d="M168.603 56.0227C168.603 57.6265 167.303 58.9256 165.7 58.9256C164.096 58.9256 162.797 57.6265 162.797 56.0227C162.797 54.4188 164.096 53.1198 165.7 53.1198C167.303 53.1198 168.603 54.4188 168.603 56.0227Z" stroke="#F4B840" stroke-width="2.921" stroke-linecap="round"/>
<path fill-rule="evenodd" clip-rule="evenodd" d="M123.532 239.62C121.534 240.38 119.299 239.377 118.54 237.379C117.779 235.382 118.783 233.147 120.78 232.387C122.778 231.626 125.012 232.63 125.772 234.628C126.532 236.625 125.529 238.86 123.532 239.62Z" stroke="#F4B840" stroke-width="2.921" stroke-linecap="round"/>
</g>
<defs>
<clipPath id="clip0_304_15979">
<rect width="463" height="463" fill="white" transform="translate(13)"/>
</clipPath>
</defs>
</svg>
