<svg width="181" height="164" viewBox="0 0 181 164" fill="none" xmlns="http://www.w3.org/2000/svg">
<path d="M162.201 134.22V128.939H156.47V118.694H148.235V77.0811H140.358V102.234H133.196V93.2297H123.531V116.519H119.592V123.97H110.284V121.176H113.146V119.624H101.33V121.488H102.765V129.562H96.6759V114.343H75.1947V125.211H59.7938V117.137H54.0669V126.146H41.8935V109.685H36.8819V104.098H27.9276V129.562H18.9774V135.15H13.2505V152.228H173.301V134.22H162.201Z" stroke="#99A57C" stroke-miterlimit="10"/>
<path d="M31.4498 109.612H29.5142V111.601H31.4498V109.612Z" fill="#99A57C"/>
<path d="M35.4805 109.612H33.5449V111.601H35.4805V109.612Z" fill="#99A57C"/>
<path d="M31.4498 113.76H29.5142V115.749H31.4498V113.76Z" fill="#99A57C"/>
<path d="M35.4805 113.76H33.5449V115.749H35.4805V113.76Z" fill="#99A57C"/>
<path d="M39.836 113.76H37.9004V115.749H39.836V113.76Z" fill="#99A57C"/>
<path d="M39.836 117.903H37.9004V119.892H39.836V117.903Z" fill="#99A57C"/>
<path d="M39.836 122.05H37.9004V124.039H39.836V122.05Z" fill="#99A57C"/>
<path d="M39.836 126.193H37.9004V128.183H39.836V126.193Z" fill="#99A57C"/>
<path d="M39.836 130.34H37.9004V132.33H39.836V130.34Z" fill="#99A57C"/>
<path d="M39.836 134.488H37.9004V136.477H39.836V134.488Z" fill="#99A57C"/>
<path d="M31.4498 117.903H29.5142V119.892H31.4498V117.903Z" fill="#99A57C"/>
<path d="M35.4805 117.903H33.5449V119.892H35.4805V117.903Z" fill="#99A57C"/>
<path d="M31.4498 122.05H29.5142V124.039H31.4498V122.05Z" fill="#99A57C"/>
<path d="M35.4805 122.05H33.5449V124.039H35.4805V122.05Z" fill="#99A57C"/>
<path d="M31.4498 126.193H29.5142V128.183H31.4498V126.193Z" fill="#99A57C"/>
<path d="M35.4805 126.193H33.5449V128.183H35.4805V126.193Z" fill="#99A57C"/>
<path d="M31.4498 130.34H29.5142V132.33H31.4498V130.34Z" fill="#99A57C"/>
<path d="M22.5753 132.663H20.6396V134.652H22.5753V132.663Z" fill="#99A57C"/>
<path d="M50.4864 128.182H48.5508V130.172H50.4864V128.182Z" fill="#99A57C"/>
<path d="M54.357 128.182H52.4214V130.172H54.357V128.182Z" fill="#99A57C"/>
<path d="M143.581 79.4294H141.645V81.4188H143.581V79.4294Z" fill="#99A57C"/>
<path d="M146.001 79.4294H144.065V81.4188H146.001V79.4294Z" fill="#99A57C"/>
<path d="M143.581 83.5767H141.645V85.566H143.581V83.5767Z" fill="#99A57C"/>
<path d="M146.001 83.5767H144.065V85.566H146.001V83.5767Z" fill="#99A57C"/>
<path d="M143.581 87.7244H141.645V89.7137H143.581V87.7244Z" fill="#99A57C"/>
<path d="M146.001 87.7244H144.065V89.7137H146.001V87.7244Z" fill="#99A57C"/>
<path d="M143.581 91.8674H141.645V93.8568H143.581V91.8674Z" fill="#99A57C"/>
<path d="M146.001 91.8674H144.065V93.8568H146.001V91.8674Z" fill="#99A57C"/>
<path d="M143.581 96.0149H141.645V98.0043H143.581V96.0149Z" fill="#99A57C"/>
<path d="M146.001 96.0149H144.065V98.0043H146.001V96.0149Z" fill="#99A57C"/>
<path d="M143.581 100.158H141.645V102.147H143.581V100.158Z" fill="#99A57C"/>
<path d="M146.001 100.158H144.065V102.147H146.001V100.158Z" fill="#99A57C"/>
<path d="M143.581 104.306H141.645V106.295H143.581V104.306Z" fill="#99A57C"/>
<path d="M146.001 104.306H144.065V106.295H146.001V104.306Z" fill="#99A57C"/>
<path d="M143.581 108.453H141.645V110.442H143.581V108.453Z" fill="#99A57C"/>
<path d="M146.001 108.453H144.065V110.442H146.001V108.453Z" fill="#99A57C"/>
<path d="M143.581 112.596H141.645V114.585H143.581V112.596Z" fill="#99A57C"/>
<path d="M146.001 112.596H144.065V114.585H146.001V112.596Z" fill="#99A57C"/>
<path d="M127.124 112.596H125.188V114.585H127.124V112.596Z" fill="#99A57C"/>
<path d="M131.319 112.596H129.384V114.585H131.319V112.596Z" fill="#99A57C"/>
<path d="M135.515 112.596H133.579V114.585H135.515V112.596Z" fill="#99A57C"/>
<path d="M127.124 121.553H125.188V123.542H127.124V121.553Z" fill="#99A57C"/>
<path d="M131.319 121.553H129.384V123.542H131.319V121.553Z" fill="#99A57C"/>
<path d="M135.515 121.553H133.579V123.542H135.515V121.553Z" fill="#99A57C"/>
<path d="M127.124 130.505H125.188V132.494H127.124V130.505Z" fill="#99A57C"/>
<path d="M131.319 130.505H129.384V132.494H131.319V130.505Z" fill="#99A57C"/>
<path d="M135.515 130.505H133.579V132.494H135.515V130.505Z" fill="#99A57C"/>
<path d="M143.581 116.744H141.645V118.733H143.581V116.744Z" fill="#99A57C"/>
<path d="M146.001 116.744H144.065V118.733H146.001V116.744Z" fill="#99A57C"/>
<path d="M143.581 120.886H141.645V122.876H143.581V120.886Z" fill="#99A57C"/>
<path d="M146.001 120.886H144.065V122.876H146.001V120.886Z" fill="#99A57C"/>
<path d="M143.581 125.034H141.645V127.023H143.581V125.034Z" fill="#99A57C"/>
<path d="M146.001 125.034H144.065V127.023H146.001V125.034Z" fill="#99A57C"/>
<path d="M150.036 120.886H148.1V122.876H150.036V120.886Z" fill="#99A57C"/>
<path d="M154.555 120.886H152.62V122.876H154.555V120.886Z" fill="#99A57C"/>
<path d="M150.036 124.87H148.1V126.859H150.036V124.87Z" fill="#99A57C"/>
<path d="M154.555 124.87H152.62V126.859H154.555V124.87Z" fill="#99A57C"/>
<path d="M150.036 128.849H148.1V130.838H150.036V128.849Z" fill="#99A57C"/>
<path d="M154.555 128.849H152.62V130.838H154.555V128.849Z" fill="#99A57C"/>
<path d="M150.036 132.827H148.1V134.817H150.036V132.827Z" fill="#99A57C"/>
<path d="M154.555 132.827H152.62V134.817H154.555V132.827Z" fill="#99A57C"/>
<path d="M143.581 129.181H141.645V131.171H143.581V129.181Z" fill="#99A57C"/>
<path d="M146.001 129.181H144.065V131.171H146.001V129.181Z" fill="#99A57C"/>
<path d="M143.581 133.325H141.645V135.314H143.581V133.325Z" fill="#99A57C"/>
<path d="M146.001 133.325H144.065V135.314H146.001V133.325Z" fill="#99A57C"/>
<path d="M35.4805 130.34H33.5449V132.33H35.4805V130.34Z" fill="#99A57C"/>
<path d="M31.4498 134.488H29.5142V136.477H31.4498V134.488Z" fill="#99A57C"/>
<path d="M35.4805 134.488H33.5449V136.477H35.4805V134.488Z" fill="#99A57C"/>
<path d="M31.4498 138.631H29.5142V140.62H31.4498V138.631Z" fill="#99A57C"/>
<path d="M35.4805 138.631H33.5449V140.62H35.4805V138.631Z" fill="#99A57C"/>
<path d="M31.4498 142.779H29.5142V144.768H31.4498V142.779Z" fill="#99A57C"/>
<path d="M35.4805 142.779H33.5449V144.768H35.4805V142.779Z" fill="#99A57C"/>
<path d="M137.45 144.024V152.228H121.317V135.915H137.45V142.562" stroke="#99A57C" stroke-miterlimit="10"/>
<path d="M167.141 149.75V152.228H151.004V143.604H154.337" stroke="#99A57C" stroke-miterlimit="10"/>
<path d="M156.301 143.604H167.141V148.405" stroke="#99A57C" stroke-miterlimit="10"/>
<path d="M48.2223 143.604H59.6846V152.228H43.5474V143.604H46.6906" stroke="#99A57C" stroke-miterlimit="10"/>
<path d="M22.9794 143.604H24.511V152.228H18.54V143.604H21.7759" stroke="#99A57C" stroke-miterlimit="10"/>
<path d="M130.671 135.915H128.092V152.228H130.671V135.915Z" stroke="#99A57C" stroke-miterlimit="10"/>
<path d="M110.621 138.134H108.087V133.822H116.638V138.134H112.918" stroke="#99A57C" stroke-miterlimit="10"/>
<path d="M65.3315 130.838H55.4893V134.488H65.3315V130.838Z" stroke="#99A57C" stroke-miterlimit="10"/>
<path d="M61.1363 130.838H60.1685V152.228H61.1363V130.838Z" stroke="#99A57C" stroke-miterlimit="10"/>
<path d="M91.328 0.900391C76.9316 0.900391 63.1249 6.77819 52.9451 17.2407C42.7653 27.7033 37.0464 41.8935 37.0464 56.6898C37.0464 84.5197 87.1201 150.105 87.1201 150.105H91.328C91.328 150.105 145.61 87.4994 145.61 56.6898C145.61 41.8935 139.891 27.7033 129.711 17.2407C119.531 6.77819 105.724 0.900391 91.328 0.900391ZM91.328 83.9358C86.0849 83.9358 80.9595 82.3379 76.6 79.344C72.2406 76.3502 68.8428 72.095 66.8363 67.1164C64.8299 62.1379 64.3049 56.6596 65.3277 51.3744C66.3506 46.0892 68.8754 41.2344 72.5829 37.424C76.2903 33.6136 81.0139 31.0186 86.1562 29.9673C91.2986 28.9161 96.6288 29.4556 101.473 31.5178C106.317 33.58 110.457 37.0722 113.37 41.5528C116.283 46.0333 117.838 51.3011 117.838 56.6898C117.838 60.2678 117.152 63.8108 115.82 67.1164C114.487 70.4221 112.535 73.4256 110.073 75.9557C107.611 78.4857 104.689 80.4926 101.473 81.8618C98.2565 83.2311 94.8093 83.9358 91.328 83.9358Z" fill="#99A57C" stroke="#99A57C" stroke-linecap="round" stroke-linejoin="round"/>
<path d="M87.1195 0.900391C72.7231 0.900391 58.9164 6.77819 48.7366 17.2407C38.5568 27.7033 32.8379 41.8935 32.8379 56.6898C32.8379 87.4994 87.1195 150.105 87.1195 150.105C87.1195 150.105 141.401 87.4994 141.401 56.6898C141.401 41.8935 135.682 27.7033 125.502 17.2407C115.323 6.77819 101.516 0.900391 87.1195 0.900391ZM87.1195 83.9358C81.8764 83.9358 76.751 82.3379 72.3915 79.344C68.0321 76.3502 64.6343 72.095 62.6278 67.1164C60.6214 62.1379 60.0964 56.6596 61.1193 51.3744C62.1421 46.0892 64.6669 41.2344 68.3744 37.424C72.0818 33.6136 76.8054 31.0186 81.9477 29.9673C87.0901 28.9161 92.4203 29.4556 97.2643 31.5178C102.108 33.58 106.249 37.0722 109.161 41.5528C112.074 46.0333 113.629 51.3011 113.629 56.6898C113.629 63.9159 110.836 70.846 105.865 75.9557C100.893 81.0653 94.1503 83.9358 87.1195 83.9358Z" fill="#F4B840" stroke="#99A57C" stroke-linecap="round" stroke-linejoin="round"/>
<path d="M70.0488 90.6914L76.0451 80.2039L76.1502 83.988L72.5736 91.3401L70.0488 90.6914Z" fill="#FAF5EF" stroke="#99A57C" stroke-linecap="round" stroke-linejoin="round"/>
<path d="M76.1501 126.12C75.8125 127.946 75.0373 129.657 73.8947 131.098C71.9801 133.533 69.3881 138.281 69.2661 142.796C69.144 147.311 64.0777 159.806 64.6374 160.731C65.197 161.657 70.1581 162.932 72.0727 162.932C73.0784 162.932 74.7447 163.33 75.4096 162.323C75.4474 162.266 71.4752 160.16 71.2017 159.957C70.9282 159.754 68.7148 158.154 68.7864 157.95C68.7864 157.95 73.9789 143.488 76.5709 139.786C79.163 136.084 81.0776 133.299 81.8644 130.985C82.6513 128.672 83.3582 126.479 83.3582 126.479L76.1501 126.12Z" fill="#FAF5EF"/>
<mask id="mask0_157_2403" style="mask-type:luminance" maskUnits="userSpaceOnUse" x="64" y="126" width="20" height="38">
<path d="M76.1501 126.12C75.8125 127.946 75.0373 129.657 73.8947 131.098C71.9801 133.533 69.3881 138.281 69.2661 142.796C69.144 147.311 64.0777 159.806 64.6374 160.731C65.197 161.657 70.1581 162.932 72.0727 162.932C73.0784 162.932 74.7447 163.33 75.4096 162.323C75.4474 162.266 71.4752 160.16 71.2017 159.957C70.9282 159.754 68.7148 158.154 68.7864 157.95C68.7864 157.95 73.9789 143.488 76.5709 139.786C79.163 136.084 81.0776 133.299 81.8644 130.985C82.6513 128.672 83.3582 126.479 83.3582 126.479L76.1501 126.12Z" fill="white"/>
</mask>
<g mask="url(#mask0_157_2403)">
<g style="mix-blend-mode:multiply">
<path d="M74.7402 129.861C76.9208 130.821 79.2115 131.491 81.557 131.855C81.6832 131.556 81.7968 131.266 81.8936 130.99C82.6847 128.672 83.358 126.47 83.358 126.47L76.1499 126.124C75.9091 127.449 75.4312 128.716 74.7402 129.861Z" fill="#F4B840"/>
</g>
</g>
<path d="M76.1501 126.12C75.8125 127.946 75.0373 129.657 73.8947 131.098C71.9801 133.533 69.3881 138.281 69.2661 142.796C69.144 147.311 64.0777 159.806 64.6374 160.731C65.197 161.657 70.1581 162.932 72.0727 162.932C73.0784 162.932 74.7447 163.33 75.4096 162.323C75.4474 162.266 71.4752 160.16 71.2017 159.957C70.9282 159.754 68.7148 158.154 68.7864 157.95C68.7864 157.95 73.9789 143.488 76.5709 139.786C79.163 136.084 81.0776 133.299 81.8644 130.985C82.6513 128.672 83.3582 126.479 83.3582 126.479L76.1501 126.12Z" stroke="#99A57C" stroke-linecap="round" stroke-linejoin="round"/>
<path d="M92.4556 127.067C93.5545 128.545 94.2776 130.281 94.5595 132.118C95.035 135.21 96.735 140.365 99.9288 143.475C103.123 146.584 108.765 159.663 109.809 159.848C111.033 160.073 112.902 158.465 113.811 157.812C114.968 156.981 117.623 155.286 118.018 153.82C118.494 152.133 116.807 152.981 116.095 153.526C115.174 154.231 110.575 154.823 110.575 154.823C110.575 154.823 103.585 140.318 102.643 135.863C101.7 131.409 100.96 128.079 99.8194 125.916C98.679 123.754 97.5345 121.778 97.5345 121.778L92.4556 127.067Z" fill="#FAF5EF"/>
<mask id="mask1_157_2403" style="mask-type:luminance" maskUnits="userSpaceOnUse" x="92" y="121" width="27" height="39">
<path d="M92.4556 127.067C93.5545 128.545 94.2776 130.281 94.5595 132.118C95.035 135.21 96.735 140.365 99.9288 143.475C103.123 146.584 108.765 159.663 109.809 159.848C111.033 160.073 112.902 158.465 113.811 157.812C114.968 156.981 117.623 155.286 118.018 153.82C118.494 152.133 116.807 152.981 116.095 153.526C115.174 154.231 110.575 154.823 110.575 154.823C110.575 154.823 103.585 140.318 102.643 135.863C101.7 131.409 100.96 128.079 99.8194 125.916C98.679 123.754 97.5345 121.778 97.5345 121.778L92.4556 127.067Z" fill="white"/>
</mask>
<g mask="url(#mask1_157_2403)">
<g style="mix-blend-mode:multiply">
<path d="M99.8194 125.93C98.6706 123.767 97.5303 121.791 97.5303 121.791L92.4556 127.067C93.3171 128.225 93.9451 129.549 94.3028 130.96C96.5928 130.54 98.8448 129.925 101.035 129.121C100.737 128.018 100.329 126.948 99.8194 125.93Z" fill="#F4B840"/>
</g>
</g>
<path d="M92.4556 127.067C93.5545 128.545 94.2776 130.281 94.5595 132.118C95.035 135.21 96.735 140.365 99.9288 143.475C103.123 146.584 108.765 159.663 109.809 159.848C111.033 160.073 112.902 158.465 113.811 157.812C114.968 156.981 117.623 155.286 118.018 153.82C118.494 152.133 116.807 152.981 116.095 153.526C115.174 154.231 110.575 154.823 110.575 154.823C110.575 154.823 103.585 140.318 102.643 135.863C101.7 131.409 100.96 128.079 99.8194 125.916C98.679 123.754 97.5345 121.778 97.5345 121.778L92.4556 127.067Z" stroke="#99A57C" stroke-linecap="round" stroke-linejoin="round"/>
<path d="M118.023 153.82C118.498 152.133 116.811 152.981 116.1 153.526C115.178 154.231 110.579 154.823 110.579 154.823C110.579 154.823 110.082 153.699 109.359 152.003C108.462 152.732 107.471 153.327 106.413 153.772C107.991 156.968 109.3 159.775 109.813 159.866C111.038 160.091 112.906 158.482 113.815 157.829C114.959 156.981 117.614 155.286 118.023 153.82Z" fill="#FAF5EF" stroke="#99A57C" stroke-linecap="round" stroke-linejoin="round"/>
<path d="M76.3022 103.008L72.3931 125.181C74.1562 126.341 76.0335 127.307 77.9938 128.062C81.0739 129.212 86.4095 128.926 86.4095 128.926L88.5134 118.136L89.355 128.209C89.355 128.209 93.4156 128.641 96.3569 128.066C99.2982 127.491 104.057 124.321 104.057 124.321L94.8 106.624L92.6961 102.45L76.3148 102.018L76.3022 103.008Z" fill="#FAF5EF"/>
<mask id="mask2_157_2403" style="mask-type:luminance" maskUnits="userSpaceOnUse" x="72" y="102" width="33" height="27">
<path d="M76.3022 103.008L72.3931 125.181C74.1562 126.341 76.0335 127.307 77.9938 128.062C81.0739 129.212 86.4095 128.926 86.4095 128.926L88.5134 118.136L89.355 128.209C89.355 128.209 93.4156 128.641 96.3569 128.066C99.2982 127.491 104.057 124.321 104.057 124.321L94.8 106.624L92.6961 102.45L76.3148 102.018L76.3022 103.008Z" fill="white"/>
</mask>
<g mask="url(#mask2_157_2403)">
<g style="mix-blend-mode:multiply">
<path d="M88.6481 115.736C90.0704 113.906 90.5837 103.151 90.5837 103.151L76.3022 102.039V103.008L74.5181 113.072C78.5156 114.395 87.5414 117.154 88.6481 115.736Z" fill="#F4B840"/>
</g>
</g>
<path d="M76.3022 103.008L72.3931 125.181C74.1562 126.341 76.0335 127.307 77.9937 128.062C81.0739 129.212 86.4095 128.926 86.4095 128.926L88.5134 118.136L89.355 128.209C89.355 128.209 93.4156 128.641 96.3569 128.066C99.2982 127.491 104.057 124.321 104.057 124.321L94.8 106.624L92.6961 102.45L76.3148 102.018L76.3022 103.008Z" stroke="#99A57C" stroke-miterlimit="10"/>
<path d="M100.451 85.5016L108.446 87.664L111.707 77.717L99.5042 75.3384L96.769 84.5285L100.451 85.5016Z" fill="#99A57C" stroke="#99A57C" stroke-linecap="round" stroke-linejoin="round"/>
<path d="M102.012 80.9001L107.095 82.176" stroke="#FAF5EF" stroke-linecap="round" stroke-linejoin="round"/>
<path d="M101.52 82.1758L106.603 83.4516" stroke="#FAF5EF" stroke-linecap="round" stroke-linejoin="round"/>
<path d="M92.1405 86.0422C92.1405 86.0422 94.6652 84.6367 95.5068 83.4473C96.3484 82.258 97.2952 80.2038 97.716 79.8794C98.1367 79.5551 100.241 78.4739 100.661 78.1495C101.082 77.8251 101.713 78.4739 100.977 79.1226C100.241 79.7713 98.6627 81.1768 98.6627 81.1768C98.6627 81.1768 99.0835 83.123 98.5575 83.7717C98.2761 84.1294 97.9587 84.4555 97.6108 84.7448L100.451 85.5016C100.451 85.5016 98.5575 86.9072 97.716 87.1234C96.8822 87.2883 96.0388 87.3967 95.1912 87.4477L91.7197 90.2588L92.1405 86.0422Z" fill="#FAF5EF" stroke="#99A57C" stroke-linecap="round" stroke-linejoin="round"/>
<path d="M80.7789 62.4246C80.7789 62.4246 77.4126 67.463 76.571 73.3619C75.7294 79.2609 76.2933 103.008 76.2933 103.008C76.2933 103.008 80.7705 104.876 84.2883 104.876C87.8061 104.876 92.9691 105.166 93.1248 103.147C93.2805 101.127 92.1444 77.9635 90.6001 72.3499C89.5305 68.6872 87.9728 65.1943 85.9714 61.9705C85.9714 61.9705 82.462 59.5443 80.7789 62.4246Z" fill="#99A57C" stroke="#99A57C" stroke-linecap="round" stroke-linejoin="round"/>
<path d="M88.4585 66.7971L83.9351 96.4217L87.9325 97.9354L89.7209 69.5001L88.4585 66.7971Z" fill="#FAF5EF" stroke="#99A57C" stroke-linecap="round" stroke-linejoin="round"/>
<path d="M78.4434 50.9469C78.4434 50.9469 79.003 53.6801 80.1265 55.1203C81.25 56.5604 83.3455 57.2827 83.3455 57.2827L82.7438 60.5565L86.6656 63.0043L88.1046 55.9852L88.5254 47.6384C88.5254 47.6384 78.7042 49.364 78.4434 50.9469Z" fill="#FAF5EF" stroke="#99A57C" stroke-linecap="round" stroke-linejoin="round"/>
<path d="M78.4434 50.9468C78.4434 50.9468 79.003 53.6801 80.1265 55.1202C81.25 56.5603 83.3455 57.2826 83.3455 57.2826C83.3455 57.2826 86.7118 56.2749 86.9853 53.9741C87.1873 52.3134 86.8844 49.4634 86.695 47.9973C83.8379 48.5768 78.6453 49.8007 78.4434 50.9468Z" fill="#99A57C" stroke="#99A57C" stroke-linecap="round" stroke-linejoin="round"/>
<path d="M84.1744 51.6604C84.1744 51.6604 82.7732 49.9304 81.9358 50.6527C81.0984 51.3749 81.3719 53.3903 82.3566 54.3979C83.3412 55.4056 84.5994 54.5406 84.5994 54.5406C84.5994 54.5406 85.159 56.4089 86.1395 57.2739C87.1199 58.1388 90.4778 58.714 91.6097 57.8491C92.7416 56.9841 92.3082 53.8184 92.3082 53.8184C92.3082 53.8184 94.2691 52.8107 94.1302 52.0885C93.9914 51.3663 92.5859 50.7911 92.5859 50.2202C92.5741 49.7846 92.5277 49.3506 92.4471 48.9228V47.7681L86.009 49.2082C86.009 49.2082 85.1632 52.5253 84.1744 51.6604Z" fill="#FAF5EF"/>
<mask id="mask3_157_2403" style="mask-type:luminance" maskUnits="userSpaceOnUse" x="81" y="47" width="14" height="12">
<path d="M84.1744 51.6604C84.1744 51.6604 82.7732 49.9304 81.9358 50.6527C81.0984 51.3749 81.3719 53.3903 82.3566 54.3979C83.3412 55.4056 84.5994 54.5406 84.5994 54.5406C84.5994 54.5406 85.159 56.4089 86.1395 57.2739C87.1199 58.1388 90.4778 58.714 91.6097 57.8491C92.7416 56.9841 92.3082 53.8184 92.3082 53.8184C92.3082 53.8184 94.2691 52.8107 94.1302 52.0885C93.9914 51.3663 92.5859 50.7911 92.5859 50.2202C92.5741 49.7846 92.5277 49.3506 92.4471 48.9228V47.7681L86.009 49.2082C86.009 49.2082 85.1632 52.5253 84.1744 51.6604Z" fill="white"/>
</mask>
<g mask="url(#mask3_157_2403)">
<g style="mix-blend-mode:multiply" opacity="0.5">
<g style="mix-blend-mode:multiply">
<path d="M86.0053 49.2212C85.8246 49.9161 85.5618 50.5857 85.2227 51.2149C87.7474 51.0981 90.4446 50.9338 92.86 50.7176C92.7113 50.596 92.6123 50.4217 92.5822 50.2289C92.5704 49.7932 92.524 49.3593 92.4434 48.9314V47.7681L86.0053 49.2212Z" fill="#F4B840"/>
</g>
</g>
</g>
<path d="M84.1744 51.6604C84.1744 51.6604 82.7732 49.9304 81.9358 50.6527C81.0984 51.3749 81.3719 53.3903 82.3566 54.3979C83.3412 55.4056 84.5994 54.5406 84.5994 54.5406C84.5994 54.5406 85.159 56.4089 86.1395 57.2739C87.1199 58.1388 90.4778 58.714 91.6097 57.8491C92.7416 56.9841 92.3082 53.8184 92.3082 53.8184C92.3082 53.8184 94.2691 52.8107 94.1302 52.0885C93.9914 51.3663 92.5859 50.7911 92.5859 50.2202C92.5741 49.7846 92.5277 49.3506 92.4471 48.9228V47.7681L86.009 49.2082C86.009 49.2082 85.1633 52.5253 84.1744 51.6604Z" stroke="#99A57C" stroke-linecap="round" stroke-linejoin="round"/>
<path d="M78.4433 50.9467L92.4429 47.768C92.4429 47.768 90.4821 40.7143 88.1046 40.1391C85.7272 39.5639 81.1027 39.2742 78.5822 41.869C76.0617 44.4639 78.4433 50.9467 78.4433 50.9467Z" fill="#FAF5EF" stroke="#99A57C" stroke-linecap="round" stroke-linejoin="round"/>
<path d="M87.8232 48.9314C89.6684 49.3526 91.5398 49.6416 93.4239 49.7964C95.9487 49.9391 101.684 47.634 100.287 47.4913C98.89 47.3486 92.4435 47.781 92.4435 47.781L87.8232 48.9314Z" fill="#99A57C" stroke="#99A57C" stroke-linecap="round" stroke-linejoin="round"/>
<path d="M81.3429 59.4016L80.0806 62.2819L86.384 66.3083L87.6421 62.2819L81.3429 59.4016Z" fill="#FAF5EF" stroke="#99A57C" stroke-linecap="round" stroke-linejoin="round"/>
<path d="M68.3657 89.502L90.7727 95.4485L88.4457 112.289C88.4077 112.564 88.3134 112.828 88.1691 113.064C88.0248 113.299 87.8337 113.5 87.6084 113.654C87.3831 113.808 87.1286 113.911 86.8617 113.957C86.5949 114.003 86.3216 113.99 86.0598 113.92L65.6895 108.479C65.3072 108.378 64.9783 108.127 64.7725 107.781C64.5667 107.435 64.5002 107.02 64.587 106.624L68.3657 89.502Z" fill="#FAF5EF" stroke="#99A57C" stroke-linecap="round" stroke-linejoin="round"/>
<path d="M68.3657 89.502C68.3657 89.502 73.655 102.692 76.8951 104.422C80.1352 106.152 90.7811 95.4615 90.7811 95.4615" stroke="#99A57C" stroke-linecap="round" stroke-linejoin="round"/>
<path d="M72.8132 83.7241C72.8132 83.7241 71.4119 86.8899 71.8327 88.0489C72.2535 89.2079 89.6152 95.6778 89.6152 95.6778C89.6152 95.6778 89.7541 98.1213 90.1749 98.7051C90.5352 99.3386 90.8179 100.016 91.0164 100.72C91.0164 100.72 90.1749 102.736 90.5956 103.168C91.0164 103.601 92.2788 101.153 92.2788 100.435C92.2788 99.7171 92.4177 95.8291 92.0011 94.8128C91.5845 93.7965 79.6762 86.3233 79.6762 86.3233L72.8132 83.7241Z" fill="#FAF5EF" stroke="#99A57C" stroke-linecap="round" stroke-linejoin="round"/>
<path d="M80.5011 66.4553L72.3799 84.1523L79.6595 86.3146L85.5421 72.2116" fill="#99A57C"/>
<path d="M80.5011 66.4553L72.3799 84.1522L79.6595 86.3146L85.5421 72.2116" stroke="#99A57C" stroke-linecap="round" stroke-linejoin="round"/>
<path d="M79.6597 86.3148L85.0205 73.959" stroke="#FAF5EF" stroke-linecap="round" stroke-linejoin="round"/>
<path d="M83.1816 78.4956L85.8789 75.7234" stroke="#FAF5EF" stroke-linecap="round" stroke-linejoin="round"/>
<path d="M75.1865 124.719C78.5479 126.51 82.3248 127.313 86.1018 127.041" stroke="#99A57C" stroke-linecap="round" stroke-linejoin="round"/>
<path d="M73.3604 123.585C73.3604 123.585 73.6844 123.836 74.2861 124.208" stroke="#99A57C" stroke-linecap="round" stroke-linejoin="round"/>
<path d="M100.653 123.702C101.187 123.404 101.706 123.076 102.206 122.72" stroke="#99A57C" stroke-linecap="round" stroke-linejoin="round"/>
<path d="M89.8809 126.479C93.1659 126.434 96.4086 125.71 99.4159 124.351" stroke="#99A57C" stroke-linecap="round" stroke-linejoin="round"/>
<path d="M88.4834 118.119L91.5047 112.743" stroke="#99A57C" stroke-linecap="round" stroke-linejoin="round"/>
<path d="M88.6475 117.838L93.6843 111.969" stroke="#99A57C" stroke-linecap="round" stroke-linejoin="round"/>
<path d="M75.8012 115.507L75.3804 118.699C76.4138 119.442 77.5481 120.025 78.7467 120.428C80.7622 121.12 85.0585 121.034 85.0585 121.034L85.6476 118.007C85.6476 118.007 78.1744 117.142 76.6638 115.844" stroke="#99A57C" stroke-linecap="round" stroke-linejoin="round"/>
<path d="M75.3002 119.905C75.3002 119.905 74.122 122.842 74.8794 123.534C75.6369 124.225 81.0061 126.293 82.4536 126.128C83.9011 125.964 84.7174 122.331 84.7174 122.331" stroke="#99A57C" stroke-linecap="round" stroke-linejoin="round"/>
<path d="M118.023 153.82C118.498 152.133 116.811 152.981 116.1 153.526C115.178 154.231 110.579 154.823 110.579 154.823L110.019 153.526C109.176 154.288 108.211 154.893 107.167 155.316C108.391 157.816 109.371 159.78 109.801 159.853C111.025 160.078 112.893 158.469 113.802 157.816C114.959 156.982 117.615 155.286 118.023 153.82Z" fill="#99A57C" stroke="#99A57C" stroke-linecap="round" stroke-linejoin="round"/>
<path d="M114.526 156.181C112.633 157.193 110.423 158.422 109.148 159.109C109.426 159.542 109.649 159.823 109.801 159.849C111.025 160.074 112.893 158.465 113.802 157.812C114.96 156.981 117.615 155.286 118.01 153.82C118.212 153.111 118.01 152.851 117.695 152.83C116.996 154.032 115.91 155.455 114.526 156.181Z" fill="#FAF5EF" stroke="#99A57C" stroke-linecap="round" stroke-linejoin="round"/>
<path d="M71.2311 159.957C71.0291 159.801 68.7442 158.154 68.8158 157.95C68.8158 157.95 69.2744 156.683 69.9772 154.806C68.7722 154.651 67.594 154.325 66.4762 153.837C65.3569 157.332 64.3723 160.299 64.65 160.731C65.2096 161.657 70.1707 162.932 72.0853 162.932C73.091 162.932 74.7573 163.33 75.4221 162.323C75.46 162.266 71.4878 160.152 71.2311 159.957Z" fill="#FAF5EF" stroke="#99A57C" stroke-linecap="round" stroke-linejoin="round"/>
<path d="M75.422 162.323C75.4599 162.266 71.4877 160.16 71.2141 159.957C70.9406 159.754 68.7273 158.154 68.7988 157.95L69.2449 156.726C68.0853 156.51 66.9493 156.177 65.8533 155.732C65.0117 158.352 64.4184 160.376 64.633 160.731C65.1927 161.657 70.1538 162.932 72.0683 162.932C73.0909 162.932 74.7572 163.33 75.422 162.323Z" fill="#99A57C" stroke="#99A57C" stroke-linecap="round" stroke-linejoin="round"/>
<path d="M71.4836 161.977C68.9042 161.817 66.0386 160.727 64.6374 160.13C64.5812 160.326 64.5812 160.535 64.6374 160.731C65.197 161.657 70.1581 162.932 72.0727 162.932C73.0784 162.932 74.7447 163.33 75.4095 162.323C75.2218 162.186 75.0234 162.066 74.8162 161.964C73.707 162.047 72.5934 162.052 71.4836 161.977Z" fill="#FAF5EF" stroke="#99A57C" stroke-linecap="round" stroke-linejoin="round"/>
<path d="M87.0947 48.9444L84.8477 43.4563" stroke="black" stroke-linecap="round" stroke-linejoin="round"/>
<path d="M84.5659 42.4485C84.5659 42.4485 83.8632 40.857 84.4271 40.1348" stroke="black" stroke-linecap="round" stroke-linejoin="round"/>
</svg>
