<svg width="490" height="463" viewBox="0 0 490 463" fill="none" xmlns="http://www.w3.org/2000/svg">
<path d="M318.625 204.933C311.452 176.536 287.136 162.726 259.626 152.699C249.557 149.027 238.591 145.008 232.543 135.608C228.62 129.514 229.967 118.567 239.314 117.872C247.379 117.273 252.21 125.934 254.792 133.35H316.367C314.513 104.29 300.786 85.2408 278.639 73.0551C274.363 70.6856 269.816 68.8436 265.097 67.5692V46.9353H216.728V65.9568C214.794 66.6054 212.53 67.2232 210.603 67.8935C182.753 77.5556 162.558 108.522 169.65 136.9C176.424 163.983 203.235 180.623 229.306 191.07C239.644 195.212 250.585 199.129 258.65 206.545C266.716 213.962 271.828 226.518 267.358 236.535C262.471 247.476 247.042 251.689 236.725 245.564C226.408 239.439 222.208 224.927 225.439 213.64C208.672 212.349 191.581 212.995 174.49 212.995C173.727 212.884 172.948 213.05 172.298 213.465C171.647 213.879 171.166 214.514 170.944 215.253C167.398 224.603 168.933 240.421 170.944 250.077C172.94 259.597 177.167 268.507 183.278 276.074C189.388 283.642 197.207 289.652 206.093 293.609C209.562 295.194 213.114 296.593 216.731 297.801V318.438H265.418V300.701C275.836 298.446 285.633 293.933 294.117 287.481C317.611 267.122 325.664 232.801 318.625 204.933Z" fill="#FFE55D"/>
<path d="M320.131 204.593C316.208 190.183 307.45 177.56 295.324 168.842C267.255 149.28 244.165 150.547 233.836 134.784C232.932 133.284 232.353 131.611 232.135 129.874C231.917 128.136 232.065 126.372 232.57 124.696C239.464 127.645 246.358 131.009 253.265 133.653C253.342 134.002 253.535 134.314 253.813 134.539C254.091 134.763 254.437 134.887 254.794 134.889H316.368C316.687 134.891 316.998 134.794 317.258 134.611C317.519 134.428 317.716 134.169 317.823 133.87C317.896 133.67 317.926 133.458 317.913 133.246C316.578 112.226 308.371 94.4645 294.159 81.8679C286.157 74.8622 276.789 69.5917 266.646 66.3894V46.9293C266.646 46.5197 266.484 46.1269 266.194 45.8372C265.904 45.5476 265.511 45.3849 265.102 45.3849H262.47C237.391 33.9559 240.712 35.349 239.303 35H190.613C190.326 35.0138 190.049 35.1133 189.819 35.2856C189.589 35.4579 189.416 35.6952 189.322 35.9668V54.2871C178.081 57.3572 167.844 63.3283 159.638 71.6019C151.432 79.8755 145.546 90.1609 142.568 101.427C136.372 125.591 149.339 148.326 167.397 161.404C178.517 169.401 190.621 175.932 203.41 180.836C210.03 183.341 212.254 185.717 225.731 191.289C231.766 195.818 231.72 195.771 231.995 196C235.127 198.654 237.658 201.946 239.418 205.655C241.179 209.364 242.128 213.406 242.204 217.511C242.03 221.385 240.682 225.114 238.339 228.203C235.996 231.293 232.769 233.597 229.085 234.809C225.838 228.393 225.069 221.005 226.923 214.058C226.986 213.837 226.999 213.604 226.961 213.378C226.923 213.151 226.835 212.936 226.704 212.748C226.129 211.923 225.289 212.062 223.161 211.92C215.609 207.571 207.616 204.037 199.317 201.378C194.184 200.522 171.517 200.735 150.306 200.735C148.797 200.503 147.256 200.609 145.793 201.044C144.8 201.729 144.107 202.768 143.856 203.948C140.863 211.932 141.32 222.092 142.244 231.355C143.4 243.152 147.747 254.41 154.819 263.922C163.641 274.973 175.533 283.169 189.001 287.481V307.454C189.001 307.763 189.309 308.096 189.646 308.42L216.062 319.933C216.371 320.066 216.371 319.961 265.423 319.961C265.832 319.958 266.223 319.795 266.512 319.506C266.802 319.216 266.965 318.825 266.968 318.416V301.934C277.188 299.544 286.787 295.017 295.132 288.651C319.414 267.601 327 234.046 320.131 204.593ZM293.177 286.258C284.875 292.573 275.288 296.989 265.093 299.194C264.748 299.268 264.439 299.458 264.218 299.732C263.997 300.007 263.877 300.349 263.879 300.701V316.893H218.274V297.795C218.274 295.895 217.079 296.899 206.722 292.191C198.056 288.343 190.43 282.489 184.472 275.113C178.514 267.737 174.396 259.05 172.456 249.768C170.393 239.451 169.139 224.362 172.324 215.936C173.009 214.567 173.278 214.533 174.486 214.533C190.712 214.533 207.41 213.94 223.494 215.043C221.168 226.027 224.989 240.372 235.933 246.886C238.851 248.519 242.077 249.525 245.406 249.838C248.735 250.152 252.092 249.768 255.264 248.709C274.85 242.438 274.767 219.275 259.693 205.402C251.576 197.937 240.69 193.94 229.87 189.624C196.454 176.311 176.657 158.544 171.153 136.523C164.592 110.267 182.891 79.5204 211.092 69.3579C216.912 67.4119 218.274 67.6003 218.274 65.9601V48.4769H263.554V67.5694C263.554 70.0004 266.405 68.2181 277.884 74.3959C282.941 77.1892 287.711 80.4741 292.124 84.2031C305.603 96.4944 313.713 113.591 314.703 131.806H255.866C251.915 121.119 246.161 115.778 239.186 116.331C229.119 117.026 226.373 128.761 231.229 136.455C242.349 153.444 265.364 151.733 293.523 171.36C305.144 179.548 313.507 191.57 317.144 205.313C323.939 232.31 316.551 265.994 293.177 286.258Z" fill="#48583B"/>
<g clip-path="url(#clip0_304_16069)">
<path d="M209.513 7.64075C175.993 10.4782 163.674 38.8501 173.766 55.3883C180.888 67.0569 192.955 82.8267 215.45 79.044C237.943 75.2604 239.838 54.4431 227.992 51.6115C216.146 48.7808 173.942 61.9871 178.712 92.4961C182.155 114.509 211.998 120.854 211.998 120.854" stroke="#F4B840" stroke-width="2" stroke-dasharray="7"/>
<path fill-rule="evenodd" clip-rule="evenodd" d="M227.933 -7.29066C228.061 -7.81514 228.23 -8.3178 228.418 -8.80908C227.379 -8.64501 226.322 -8.41454 225.258 -8.10251C224.104 -7.76487 223.027 -7.32196 222.014 -6.81456C221.575 -5.98374 221.218 -5.09602 220.987 -4.14286C219.561 1.72501 222.927 7.63936 228.583 9.57603C229.196 9.45463 229.811 9.31427 230.427 9.13407C232.15 8.62951 233.738 7.96182 235.175 7.18791C229.652 4.7647 226.473 -1.28242 227.933 -7.29066Z" fill="#F4B840"/>
<path fill-rule="evenodd" clip-rule="evenodd" d="M219.858 -4.2305C219.993 -4.81019 220.176 -5.3645 220.379 -5.90613C215.486 -2.77152 212.746 2.09337 213.198 4.93032C210.072 6.27415 208.08 7.4062 208.08 7.4062C208.08 7.4062 210.439 7.22663 213.877 6.56594C215.718 9.25651 220.822 11.058 226.465 10.412C221.353 7.76826 218.467 1.7518 219.858 -4.2305Z" fill="#F4B840"/>
<path fill-rule="evenodd" clip-rule="evenodd" d="M235.911 -1.96743C234.701 -2.25877 233.952 -3.47832 234.243 -4.69974C234.533 -5.91275 235.755 -6.66446 236.964 -6.37312C238.179 -6.0799 238.921 -4.85568 238.632 -3.64174C238.34 -2.42125 237.127 -1.67514 235.911 -1.96743ZM230.26 -8.68571C230.019 -8.12587 229.814 -7.53526 229.668 -6.92357C228.385 -1.56067 231.348 3.83387 236.373 5.70499C240.566 3.08507 242.92 -0.624666 241.965 -3.84574C240.903 -7.4588 236.02 -9.32465 230.26 -8.68571Z" fill="#F4B840"/>
<path d="M69.709 146.981V149.884" stroke="#F4B840" stroke-width="2.921" stroke-linecap="round"/>
<path d="M63.9023 149.884L65.8376 151.819" stroke="#F4B840" stroke-width="2.921" stroke-linecap="round"/>
<path d="M61 155.689H63.9029" stroke="#F4B840" stroke-width="2.921" stroke-linecap="round"/>
<path d="M63.9023 161.495L65.8376 159.56" stroke="#F4B840" stroke-width="2.921" stroke-linecap="round"/>
<path d="M69.709 164.398V161.495" stroke="#F4B840" stroke-width="2.921" stroke-linecap="round"/>
<path d="M75.5154 161.495L73.5801 159.56" stroke="#F4B840" stroke-width="2.921" stroke-linecap="round"/>
<path d="M78.4166 155.689H75.5137" stroke="#F4B840" stroke-width="2.921" stroke-linecap="round"/>
<path d="M75.5154 149.884L73.5801 151.819" stroke="#F4B840" stroke-width="2.921" stroke-linecap="round"/>
<path d="M218.725 27.9612V29.8965" stroke="#F4B840" stroke-width="2.921" stroke-linecap="round"/>
<path d="M213.887 32.7993H215.822" stroke="#F4B840" stroke-width="2.921" stroke-linecap="round"/>
<path d="M218.725 38.6052V36.6699" stroke="#F4B840" stroke-width="2.921" stroke-linecap="round"/>
<path d="M224.531 33.767H222.596" stroke="#F4B840" stroke-width="2.921" stroke-linecap="round"/>
<path d="M112.285 104.405V107.307" stroke="#F4B840" stroke-width="2.921" stroke-linecap="round"/>
<path d="M103.576 113.113H106.479" stroke="#F4B840" stroke-width="2.921" stroke-linecap="round"/>
<path d="M111.316 120.854V117.951" stroke="#F4B840" stroke-width="2.921" stroke-linecap="round"/>
<path d="M120.026 113.113H117.123" stroke="#F4B840" stroke-width="2.921" stroke-linecap="round"/>
<path d="M309.683 206.006C311.82 206.006 313.553 207.739 313.553 209.877C313.553 212.015 311.82 213.748 309.683 213.748C307.545 213.748 305.812 212.015 305.812 209.877" stroke="#F4B840" stroke-width="2.921" stroke-linecap="round"/>
<path d="M328.003 258.782C328.497 262.237 326.108 265.44 322.67 265.935C319.233 266.43 316.045 264.031 315.553 260.575C315.06 257.119 317.447 253.916 320.886 253.421" stroke="#F4B840" stroke-width="2.921" stroke-linecap="round"/>
<path fill-rule="evenodd" clip-rule="evenodd" d="M328.068 169.236C330.414 168.494 334.01 165.589 334.842 162.463C335.597 165.226 338.76 168.494 341.615 168.742C338.402 169.895 335.33 173.32 334.842 176.01C334.51 173.268 330.261 169.635 328.068 169.236Z" fill="#937539"/>
<path fill-rule="evenodd" clip-rule="evenodd" d="M85.1914 204.554C86.3648 204.184 88.1623 202.731 88.5786 201.168C88.9557 202.549 90.5369 204.184 91.9649 204.308C90.3579 204.884 88.8217 206.596 88.5786 207.942C88.4121 206.571 86.2883 204.754 85.1914 204.554Z" fill="#937539"/>
<path fill-rule="evenodd" clip-rule="evenodd" d="M106.48 76.3431C106.48 77.947 105.18 79.246 103.577 79.246C101.973 79.246 100.674 77.947 100.674 76.3431C100.674 74.7392 101.973 73.4402 103.577 73.4402C105.18 73.4402 106.48 74.7392 106.48 76.3431Z" fill="#CC9F43"/>
<path fill-rule="evenodd" clip-rule="evenodd" d="M385.159 70.5367C385.159 72.6752 383.427 74.4077 381.289 74.4077C379.15 74.4077 377.418 72.6752 377.418 70.5367C377.418 68.3991 379.15 66.6666 381.289 66.6666C383.427 66.6666 385.159 68.3991 385.159 70.5367Z" fill="#937539"/>
<path fill-rule="evenodd" clip-rule="evenodd" d="M162.603 56.0227C162.603 57.6265 161.303 58.9256 159.7 58.9256C158.096 58.9256 156.797 57.6265 156.797 56.0227C156.797 54.4188 158.096 53.1198 159.7 53.1198C161.303 53.1198 162.603 54.4188 162.603 56.0227Z" stroke="#F4B840" stroke-width="2.921" stroke-linecap="round"/>
<path fill-rule="evenodd" clip-rule="evenodd" d="M117.532 239.62C115.534 240.38 113.299 239.377 112.54 237.379C111.779 235.382 112.783 233.147 114.78 232.387C116.778 231.626 119.012 232.63 119.772 234.628C120.532 236.625 119.529 238.86 117.532 239.62Z" stroke="#F4B840" stroke-width="2.921" stroke-linecap="round"/>
</g>
<defs>
<clipPath id="clip0_304_16069">
<rect width="463" height="463" fill="white" transform="translate(7)"/>
</clipPath>
</defs>
</svg>
